<mxfile host="app.diagrams.net" modified="2022-07-08T09:10:33.018Z" agent="5.0 (X11)" etag="OQ9wsJBmQGlrpIQDZnh6" version="20.0.4" type="github">
  <diagram id="3vFNCkwelxR6s1CAvjta" name="Page-1">
    <mxGraphModel dx="918" dy="511" grid="1" gridSize="10" guides="1" tooltips="1" connect="1" arrows="1" fold="1" page="1" pageScale="1" pageWidth="850" pageHeight="1100" math="0" shadow="0">
      <root>
        <mxCell id="0" />
        <mxCell id="1" parent="0" />
        <mxCell id="sGhclLiKgmVHKod2IJ2O-6" value="&lt;font face=&quot;Times New Roman&quot;&gt;Dataset with Membership Info&lt;/font&gt;" style="sketch=0;outlineConnect=0;fontColor=#232F3E;gradientColor=none;fillColor=#232F3D;strokeColor=none;dashed=0;verticalLabelPosition=bottom;verticalAlign=top;align=center;html=1;fontSize=12;fontStyle=0;aspect=fixed;pointerEvents=1;shape=mxgraph.aws4.documents;" vertex="1" parent="1">
          <mxGeometry x="100" y="340" width="64" height="78" as="geometry" />
        </mxCell>
        <mxCell id="sGhclLiKgmVHKod2IJ2O-8" value="&lt;font face=&quot;Times New Roman&quot;&gt;NON-MEMBER&lt;/font&gt;" style="shape=callout;whiteSpace=wrap;html=1;perimeter=calloutPerimeter;position2=0.83;fillColor=#f8cecc;strokeColor=#b85450;" vertex="1" parent="1">
          <mxGeometry x="20" y="320" width="100" height="62" as="geometry" />
        </mxCell>
        <mxCell id="sGhclLiKgmVHKod2IJ2O-9" value="&lt;font face=&quot;Times New Roman&quot;&gt;MEMBER&lt;/font&gt;" style="shape=callout;whiteSpace=wrap;html=1;perimeter=calloutPerimeter;position2=0.1;base=26;size=42;position=0.3;direction=east;fillColor=#d5e8d4;strokeColor=#82b366;" vertex="1" parent="1">
          <mxGeometry x="130" y="308.12" width="100" height="62" as="geometry" />
        </mxCell>
        <mxCell id="sGhclLiKgmVHKod2IJ2O-27" style="edgeStyle=orthogonalEdgeStyle;rounded=0;orthogonalLoop=1;jettySize=auto;html=1;exitX=1;exitY=0.5;exitDx=0;exitDy=0;fontFamily=Times New Roman;" edge="1" parent="1" source="sGhclLiKgmVHKod2IJ2O-12" target="sGhclLiKgmVHKod2IJ2O-18">
          <mxGeometry relative="1" as="geometry" />
        </mxCell>
        <mxCell id="sGhclLiKgmVHKod2IJ2O-12" value="Shadow Network" style="shape=image;verticalLabelPosition=bottom;verticalAlign=top;imageAspect=0;aspect=fixed;image=data:image/png,iVBORw0KGgoAAAANSUhEUgAAARwAAACCCAYAAACU73dnAAAABHNCSVQICAgIfAhkiAAAIABJREFUeJztXXdYVMcXPW+pKgIqCoqCoiIqSlQQEDUWlNgVC8HeoiJYklijRmPsLRbA/sMowd5blNhi77EgFgQVLCiC9Lb77u+P3TfuupQFdhFxz/fNh+6+nZl335s77c45gBZaaKGFFlpooYUWWnwVkEgk9LnroIUWWnxF0DodLdQN3c9dga8VPM/T48ePcfnyZTx48ACxsbGQSCSoUKECbGxs4OzsjGbNmsHQ0JD7XHUUi8Wfq2iVkJ2dTXfv3sWVK1fw5MkTxMXFgeM4mJmZwdbWFq6urrC3t4euru5ns6EWWnxWpKSk0Pr166lRo0YEIM9UsWJFmjx5MkVFRWlHGnKIjY2lefPmUfXq1fO1Yc2aNWnJkiUUFxentaEWXxeOHDlCVatWVWgQ+nqgpragbi1AJ0xsqFVjUEVjxUajo6NDM2fOpMzMzBLRaHie/yz1kEgk5O/vT2XLllWwj1EZkGtDqf1OmNiQc31QWUNFGxobG9PmzZvpc9VdCym0Q81iQHZ2Nvn6+mLDhg0AAI4D/ja2Uem3/cSRSEyV/tvBwQEHDhxArVq1vrrnFh8fT3379sWpU6cAAIb6wMEyqtmwW1oksrKl/+7atSu2b9+O8uXLf3U2LAnQGl3DyM7OpkGDBmHHjh0AAIfawJI41RqKPDwSIwEA1tbWOHv27FfldOLj46lDhw64efMmAKCLCzA+vGA2XFI7EqduSf/dsmVLHD9+XOt0PgO0BtcwRo4cSZs2bQIAnDApuKORR9fUSGSLgZo1a+LWrVuoWLFiqX9+WVlZ1KpVK1y9ehVA0W0oOO727dvj5MmT0NHRKfU2LEkQfe4KlGYcPHhQbc4GAI6Us4GuDvDs2TNMmDChyPl9CViwYIHanI18HqdOncKqVauKnJ8WBYPWu2sIiYmJZGtri9jYWDSzBRbEFr2xCBB66aNHj6JLly6l9hneu3ePmjRpArFYrBZnIw+PxEgYGhoiLCwMtWvXLrU2LGnQjnA0hK1btyI2NhY6IvU6GwBoUlf6d8mSJWrNt6RhxYoVEIvFsKio/rwrlAcyMjKwZs0a9WeuRa7QenYNgOd5ql+/Ph49eqT2nlmAMMq5e/cuGjduXOqeY1xcHFlaWiIzM1OjNjQxMUFMTIx2AbmYoB3haAB3797Fo0ePNFqG0Ovv2rVLo+V8Lhw6dAiZmZnQ02AsPMcBiYmJOHnypOYK0UIBWoejAVy+fBkAUM5Qc2X8KbFRKKu04cqVKwAAx3qaK6OBtfRvabVhSYTW4WgA9+/fBwB8U0fzZd27d0/zhXwGCPc1J0Yz0ykAWJFgo1CWFpqH9vCmmnH+/Hnq3bs3AODXaM01FgFv376FkZERcVzpWYIgIjbCKQ5cuHABJ06cIHd3d21cjoahdThqQGpqKv31118ICAhAq1atir38lJSUYi+zNCE1NRUeHh6oV68eVq9eTUOGDIGJiYnW8WgAWqMWARERERQQEICgoCB8+PBB6ftOzsDEh5ob5Qg7VQBQpkwZjBs3Dg0bNtRYeZpGVFQUVq5cqWBLTe1QCZC3oQAjIyMMHToUfn5+sLOz07YRNUJrzAJCIpHQ8ePHERAQgL///htE0sPHIpEI5cqVQ3JyMgwNDZGRkYGaFsD6dM06HI7jWB10dHTg7+8PHx+fL+657t69mwYPHoz09HSFzzXpcITzVcLzKleuHDIyMiCRSNg1HTp0wLhx49C5c2ctr44aoF00VhHx8fG0bNkysrW1RdeuXXH8+HEQESpVqoQpU6agc+fOSE5OBsdxmDZtGgDg2RvN1We2pbRnbty4MftMIpHAx8cHEyZMILFY/MXQMMybN4/69euH9PR0CGtRTZs2BQAMFimPQNSFaw+lf318fKCjo4PU1FS0atUK06dPh5mZGQAgNDQU3bt3R926dbFs2TKKj4//YuxaEqF1OPng9u3bNGLECLK0tMSkSZPw9OlTAECzZs0QFBSEmJgYVK5cGUeOHAEA/Prrr/jxxx9RpkwZjdbrygPp34kTJ8LS0hIAYGJiAgBYtWoVunXrhsTExBLdODIyMmjgwIE0c+ZMEBFMTU1BRDAxMcHChQsBALEJmis/OU36d/To0Vi2bBkA4OzZs9DV1UV0dDS2bNmCZs2aAZBO9yZNmgRLS0v88MMPdOfOnRJt25IKrcPJAVlZWRQSEkItWrSgJk2aYPPmzUhPT4e+vj4GDhyIy5cv4+bNm9ywYcO4ixcvshFN165dMXv2bJiYmHADBw4EAAzT01wPbW5ujv79+2P58uUApEFswqL18ePH0aJFC0RGRpbIhvH27Vtq164dgoODAQAtWrRgazdz585Fhw4dWGNfWkf9Nvy1mjTPdu3awc7OjpswYQK+//57AMDvv/+O0NBQDBkyBNevX8fly5fRv39/6OnpIT09HRs3boSDgwNat25Nu3fvpuzs7BJp45IIrcORw8uXL2nWrFlkZWWF/v3749KlSwCAGjVqYP78+YiOjkZwcDDn6urKAcCzZ8/o+++/h0QiQd26dREcHAyRSMQBgJ+fHwDgVZz669kpSdpYRo0aBQMDA65fv35o27YtACAiIgK//fYbOI5DWFgYnJ2dcfHixRLVIO7fv0/Nmzdn9v3555+Zs2nUqBF8fX0hEom48ePHAwD+uan+OlwNl/4VnpNIJOI2bdoEe3t7AMCgQYMQEREBkUjEubq6ciEhIdyLFy8wZ84cWFhYAAD+/fdf9O3bF7Vq1cL8+fPp7du3JcrOWpRQnD17lvr27Uu6uroKtJRt27alvXv35rgekp6eTs2aNZNSXBoZ0f3795WuGTNmDAEgEfeR/rKoybbGR67epKQkVub9+/dJR0eHANDkyZNp3759jIpTX1+fgoODS0RjOHbsGBkbGxMA0tPTo82bN9Py5cuZzc+dO8fqKRaLqUWLFlJ+Z2P12dCojLSsjh07KlGOPn78mNXP3t6eUlJSlOyWmZlJ27dvZ3UTkr6+Pg0ePJiuX79eImytRQlCSkoKrVu3TonM3MjIiMaOHUthYWF5vjRDhw5lv9m1a1eO1yYnJ1OtWrUIAJUzLHqDcaz3sZ5nzpxRKvPHH38kAKSrq0vh4eF069YtsrS0ZL+ZMWMGfU7pl5UrVzKnWKlSJTp79iy9fv2aNXBvb2+luj169IjKlClDAMjavOg2rFrpI8fxixcvcrTFwYMHmc28vb3z5EG+efMmDRs2jAwMDBTeI2dnZwoODi4xPNQlBYXe5ktNTaVr167h3r17ePXqFTIzM1G+fHlYWVmhWbNmaNy4cYmM2nz8+DEFBARgy5YtSExMZJ/b2dnB19cXgwcPzjfoKyAggHx9fQEAkydPxtKlS3O9/t69e9S2bVvExcWhrCGw36Bw27wTTCLx8IX032vWrMG4ceOUyvzw4QPVq1cPsbGxcHd3x8mTJ/H69Wv06NEDN27cAAD06dMHf/75J8qVK1dszyY7O5vGjRuHdevWAQDq1auHI0eOoE6dOhg8eDC2bdsGIyMjPHr0CJaWlkr1OnDgAPXt2xfZ2dmoWgnYIi6cDQcgEnGJ0m3ww4cPo0OHDrnaYMaMGTR//nwAwMqVKzFx4sQ87fXu3TvatGkTAgMDER0dzT43NzfH6NGjMXr06Bzv7XMjJSWFrl+/jjt37uDNmzesHdeoUQNOTk6fV2aH53m6ePEi9e3bl/U6uSVzc3P6+eef6fnz55/dw0skEjp06BB5eHgQx3EKagg9e/ak0NBQlet44cIF0tPTIwDk7u6u0vbzvXv3qHLlyqzcNt8UrKfWEX2065o1a/Is788//2TX7tmzh4iIUlNTqU+fPuxzR0dHevnyZbE8l4SEBHJ3d2dlu7u7U0JCAhERnT9/nn2+ePHiPOtz8OBBZneg4CMd4XeGhoYqPW+xWEweHh5sxPjvv/+qZK/s7Gzat28ftW3bVqE96OrqkpeXF124cOGzK0fwPE9nz56lPn36KC0jfJoqVqxIkyZNomLffIiOjmYPQD5VMpbKnLjZg+xrgcoYKEucTJ06lTIyMordyO/fv6clS5awaY2QzMzMaNq0aQV2hq9evWIyL9bW1gXSOoqJiaFOnTop1KOOZe4Np803ina0srKif/75J9/yJBIJW1uoUaMGpaamkvD5zJkzWX6WlpZ069YtjT6TJ0+eUL169ViZY8aMYTs6YrGYHBwcCADVq1ePsrKy8q3L7du3qXHjxgp2cayXuw2/qaNoQycnJ3rw4IHK9xwXF0c1a9YkAGRhYUGvXr0qkL3u3btHY8aMUZK1adKkCf3vf/+jtLS0Ym8Tjx8/Jjc3N6V2bGYCaibXjj+V2eE4jvz8/HJc01I7du/eTSYmJio1FPlkXO5jhe3t7Sk8PLxYDCzMqz8dhTk5OdGff/5ZKOeXlZXFGrKhoSHdvHmzwHnwPE/btm1TSQRPSBUrVqRp06ZRQWJqbt26xUZyMifDsG3bNtLX1ycAVLZsWdq3b59GnsnZs2epYsWKrNNZtWqVQjn+/v7sHk+ePKlyHTIzM2nx4sUqieAJqVatWrRy5cpCbV/fvHmTDA0NCQC5ubkVak0mISGBVqxYQbVr11bsrCtVoqlTp9KzZ8+KpV2sW7dOoU3Uq6FaOzaRa8e1a9emGzduaK6+wcHB7OU1KlO4RTuhsubm5hpzOpmZmRQcHEwuLi4KD9XAwIAGDx5M165dK1K5Pj4+LE/ZtKXQ4Hmezp07R+PGjSNHR0eFl0BHR4dsbGyof//+FBQUVOheUKivvr4+PXnyRCGPixcvKkzxFi1apNZh/qZNm9j0x9jYmI4dO6aQ97t376hChQoEgDw9PQtVbnZ2Nu3du5eGDx9O9evXV5hu6evrk729Pf3www906NChIkddBwUFsbzHjRtX6LwkEgkdPXqUvvvuO4V3VCQSUa9evejUqVMam24tWbLko6Mr5I4fx31ccL969ar663ngwAESiUQEgOpbF22HQJhqWVhY5Lo7UBhER0fTjBkzqEqVKkpTkIULF9K7d++KXNb//vc/lq+fn5/aDc3zPCUnJ1NCQoLajiS8f/+eKlWqRACoa9euSnlGRUVRw4YN2X0NGTKkyNNeiURCkyZNYnnWrFkzx3CBkSNHEgAqU6aM2tb4JBIJffjwgRITEzXSaIUQBwC0bdu2Iuf/6NEjGj9+PJUvX17hvW3YsCGtXbuWkpOT1XYP8qNJeYXSwqQK5T86nbt376rPzm/evGEvrKpDr/ySob60sh4eHkV+KU6fPk29e/dWWvRyd3en/fv3q63h3rhxgw2pW7ZsqdJaQ0nBhg0bmF0OHz6sVO/ExESFdaVWrVoV2kEnJydT9+7dWV5ubm45BsJdu3aNdWJz5879YmyZkZFBzs7OzFH+999/aql7UlISBQQEUP369RXeYxMTE5o4caLS6LSguH//PptCt7BXTzsWnI6Dg4P6tv2FXQ1DffUFXMlPrzZt2lTgiiYnJ1NgYKBCzwyAypcvT35+fmqfrr19+5asrKwIAFWrVo3evHnzxTQQQLow6+joSADIxsaG0tPTleqfnZ1NEydOVFjvyC8G6VO8ePGCLQADoIEDB+Y4WuJ5npo3b87WAj7HRkJREB0dzUbSNjY2aj3IyfM8hYaGUo8ePRR2UjmOo86dO9OxY8cKHEMlFotZcGqVCpppx7Nnzy66DWQvHAHqreQJExvq4PjxxVZ1FPLw4UMaN24cCxATUoMGDSggIECtw08BYrGYbW3q6+vTpUuXvqjGIeDKlSvMXr///nuu97Bu3ToWlGdsbEx///23Svd79epVsrCwYI1j/vz5uf5u48aNrC6HDh36Iu155swZZqfOnTtrJJAyKiqKJk+ezNa5hFS3bl1auXIlffjwQaUyZTbWSDsWnE758uUVIt4LBV9fX414xU+945EjR3KtqEQioQMHDpC7u7tS7IynpyedOnVKoy/szz//zMpcu3btF9k4BAwfPpxNBfLaEQkNDSVTU1NmZ9ncP1fs2LGDTTfLli1Le/bsyfX6+Ph4MjMzIwDUpUuXL9qeS5cuZe/GnDlzNHYvqamptGnTJoXRIwAqV66cStHwHTt2JCDv0IGiJJEsPiy/90QeShGEEomEKlWqhA8fPmiM/Gi6eSRuPQa8vLywc+dOhTrExcXRxo0bsW7dOjx//px9XqVKFYwcORJjxoyBlZWVRiMft2/fTt7e3gCA4cOH43//+1+JixAtCGJjY8nW1haJiYno3bs39u7dm+v9PHz4kLp27YqIiAgAgK+vL1auXAk9PT2F38yZM4d+++03EBGqVauGQ4cOwdHRMdd8fX19KSAgAAYGBrh//z7q1q37xdqU53ny8vLC7t27wXEcjhw5olEFVJ7n6cKFC1izZg327dunQBDWvn17jBs3Dl27dlWICH716hVVq1YNgGZJzDwSI+Hk5ITr16+rdP9KFz169Ijq1ZNqc2i6ojY2NoiMjOQA4Pr16+Tv74+dO3ciIyODXefi4gJfX1/069cPBgYGGn9J7969Sy4uLkhLS4OTkxPOnz8PQ0PDL7ZxCFi9ejUJp69PnjyJjh075npPcXFx1KdPH5w9exYA0LFjR+zatQumpqZceno6DR8+HNu3bwcgJco6dOgQqlevnmt+//33HzVr1gwSiQQzZszA/Pnzv3h7JiUlkbOzM8LDw2FqaoqbN28Wi2RwTEwMrVu3Dhs2bMDbt2/Z59bW1hg7dixGjBgBMzMzbu/evYzMX9PtWFdXF4mJiSodl1G64K+//qIBAwZAVwc4aqR5Pt61a9ciKCgI165dY98ZGhri+++/h5+fX569prqRkJBAjo6OePr0KSpXroybN29qfDRVXMjOzqZmzZrh7t27sLOzw507d/J04JmZmTR27Fhs3rwZAFC/fn1s2bIFEyZMYIoKvXr1QnBwcL4vWsuWLenChQuwsrJCeHh4sZ7j0iQePnxITk5OSE5OhoODAy5dulRs95aRkUG7d+/GmjVrlNrOgAEDIBKJsHHjRthZAasSNd+Or169Cmdn53zvXUm1QZjGWJsDSFVz7XKAj48P+3fNmjXh4+PDvPSWLVs0XwEZJBIJdevWDU+fPoWuri527dpVapwNAOjp6XH//vsvtW7dGg8fPsSqVavyvN7AwIATJIsnT56M8PBwuLq6gud5AMD06dMxf/58xv+TG7Zt20aDBg0CACxfvrzUOBsAsLOz4/bt20eenp64c+cOxowZA57nKT+bqAPyo+6rV6/SmjVr2OxA6CQAoFZVAIk55aBevHr1SqXrlAi4srKyAACG+uqtUF7Q19eHl5cXzp07h6lTp3JmZmbF/lLOmTMHx44dAwAsWbIEbdu2LTUNQ0Dr1q25AQMGAJCy6sXExOS52CcSibhJkyZxM2fOBMdxzNmMHDkSCxcu5PJrWElJSTR58mQAgLu7O/r27VvqbOrp6ckJjI/btm1DYGBgsdfB2dmZCw4O5kJCQlC/fn2F7zSpGgIA+nrSv/LLIHlByeEYGkr1adMy1Vep/JCVlYWdO3fCxsYGvXv3pjNnzhTridoDBw7QvHnzAADe3t746aefSl3DELBkyRIYGRkhJSUFU6ZMyff6ZcuW0fz580FEEImkr8umTZswbdq0fLeE58yZgzdv3kBPTw+rV69Wzw2UQMybNw/u7u4ApBzTxcmwmJKSQoGBgdSgQQPq27cvwsPDFb5fbqs5ilsAyMqW/i1XrpxK1ys5nNq1awPQrOJATjA0NIREIsHevXvRtm1bNGrUCIGBgRqJsZHHw4cPafDgwSAiNG7cGJs2bdJkcZ8dlpaW3OzZswEAISEhkGfYk0dWVhaNHDmSJk2aBJ7n0aBBA1y6dAnNmzcHACxatAh9+vRBbqeHw8LCSHAy48ePR4MGDUqtE9fV1eW2b98OKysriMVi9OnTB69fv9boe/vkyROaMGECWVpaYuzYsXjwQMqqX758eQBgncPTl5qsxUcIRP75QcnhODo6AgCoGHy0ra0t7OzsAAAGBgaYNWsWhB2ysLAwjB07FpaWlhg/fjw9fPhQ7TVKSkqiXr16ISkpCRUqVMD+/ftL1RpDbhg/fjyzu5+fHz49Rf3+/Xvy8PBgztfDwwOXLl2Ci4sLd/bsWUY2vn//frRq1QrR0dFKz2b8+PEQi8WoWrUqBAdXmlG5cmVu79690NfXx+vXr9GvXz+o+xgMz/N09OhR6tSpE9na2mLVqlVITEyEjo4OPD09MWLECCQnJwMAhg4dCgB4qtrSSpFgYGDAuKDzg5LDsba2hrm5udorJY/xxtJhnqurKw4cOIDy5csjMTERBw4cwI0bNxAaGooePXpAJBIhKSkJq1evhp2dHTp06EAHDx5Uyzkpnudp6NChCA8Ph0gkQkhISLFsa5YEGBgYcGvWrAEA3Lt3D2vXrmXfPXr0iFxcXHDmzBkAUod09OhRmJqacgBQtmxZLiQkBHPmzAEA3L59G82bN4c8j++uXbvo1KlTAIClS5fC2Nj4q7Crk5MTFxAQAAA4f/48pk6dqpZ8P3z4QH/88QfZ2tqiS5cuTBPNzMwM06dPR1RUFEaNGoWgoCAAQN++fbFkyRI2ytEUhOla8+bNixayMnXqVOkBsnKajTQ+e/YsAdI1FOEzLy8vtn7z7NkzmjZtGjtEKiRra2tatGhRkU6CL1iwgOU3b968LzrytbAQzsuZmJhQbGwsnTp1ioXT6+rqUkBAQJ522b59O+PyLVOmDO3evZtSU1OpRo0aBNlh0OK4j5IG4TQ8ANq+fXuhbRAWFkY+Pj5kZGSk8P43bdqUgoKCKD09nYiIoqKiGPdQgwYN2DKEjPqD7Kw02463bNlStOccFRXFjhOou5JOdh+P4csvDMuz0clY/BnS09Ppzz//JCcnJwXDGxgY0NChQwvMkn/ixAl2Yrlnz56fnfLxc+H58+eMi6dFixbs5L2JiYnKpFhXrlwhc3Nz9ky+/fZbdjTiaxWLS09PZ4dmy5YtS/fu3VPZDmKxmPbv30/t2rVTeNf19PTI29tb6Uxfeno6NWnShJ1rkl96OH36tMbPUpmZmeV4KLjAGDVqlPTFEWnmlOmnTHNisZhRJejo6JDMWEq4evUqDR48mB25F5KzszNt27Yt3xPIkZGRrDews7Mr+sGzLxyyA50s1a5du0A0nIDUcX1K/SkjAPtq8fz5c3Z2rG7duvkeuIyLi6NFixaRtbW1gh0tLCxozpw5lNsitLx6yN69exWu4Xme2rdvL3VGZTXTjj9lciw0EhMTGTVD1UrqqaxIxhiWkxwIID3gJ9AwmpmZ5UnO9PbtW1qwYAEbvgupcuXK9Msvv+RI8pWWlkbffPMN6w2Ki/K0pCIpKUmBD8fIyIhiY2MLZZOkpCQFErTmzZsXOq/Sgn/++YeNpLt3755jGMHt27dp+PDhSnS4rq6uFBISkif/kuxQMQEg2TKIEp4/f85IvtQ1tRJ4rb799lv1npb/999/2WngamZFq6zgbOrVq5cn+fidO3cY6bSjo2O+w7Xs7Gzav38/8+RCyom2ccCAAQQZjYKmuHwLCp7nKS4ujsLCwuju3bsUHR1dLNKxz549y5Fbef369YUqW17LSUg1a9Ys0HSisJBIJPT69Wu6d+8e3b9/n968efNZ9bfksWjRImYPYa0wOzubduzYoURmbmhoSEOHDlWJM/jy5ctslN++ffs8N1J27drFHF9RyfQEZ1OtWjWKiopSv41PnjzJFgYLM73q4vLRoLa2tiox38sW2ggADRs2TOU1lgcPHpCfn5/SIlv9+vUVZFJ++eWXz/oyZmRk0LZt26hHjx5K1KiQvXgtW7akuXPnFlgpQBVcunSJlSsSiWjx4sUCDSlVrFixQGoUgHQdwcbGho1sNm7cyNaDypcvT0ePHlX7PSQkJNAff/xB7u7uSjSdAMjU1JQ8PDzI39//s06beZ4XeJuJ4zgaNGgQVatWTaGuNWrUoAULFqi8CRIbG8sEDq2srFT6XXBwMHM6BnpF4yavVq0aPX78WHM2/ffff9n0CgCZGqlWYXk9JXd39wI1np9++on9NjAwsEA3lxttI2QPKCee3eJAZmYmzZ8/X4HAPL+kq6tL3t7eauOB/uuvv1gHUq5cOdq/fz8BQEREBPu8oOsvv/32G3NewgL+mTNn2FqZSCSilStXqmVxPj4+nnx9fZWkV/JK5cuXp59++umzOZ5Tp04pkccBoDZt2uQqJZ0bxGIxtWnTRuo4DAwKtGFy6NAhhXdPVflk+Xbs6upKT58+1bwdExMTaeTIkcxLyiczE5CVORRkYYRkYmJCAQEBBR7iZmdnM8Y9PT09Kky4OM/ztHPnTiUZVsiGofv37y+W6Qsgpb0Q1o+E1LZJ3g9cXhvIxMSEgoKCCt1oeZ5X0KWqXr063b59WyGvWbNmsZ5YVRmcZ8+esfWHH374QeE3jx8/JltbW1bmmDFjisQJffz4cYXRga5O3vbr1gKMJAqyKV5OEsmaQEZGRo47q4B0fbKwUivyJPUyBsUC4e3bt+Tt7a1AageAOA5U2TT3dmxkZESLFy9WG1e4yoiKiqKff/5ZabH20+To6EirVq0q0tGEt2/fsnKqVq1a4OlFZmamAvH1yJEjlUYXwnA2J8JvdeHs2bMKPXJBh7JGZT7Wd+rUqQV2OmlpadS3b1+Wh5OTU462TE1NZSNZV1dXlTqJXr16SXvLXKZi8fHxCutr7du3LxQX8Lp161R2NHmtIYpEIgoODtbYs46OjqZffvlF6T2zsbGhwYMHs/8PHTq0wM9RpmFPAEgW61NoPHnyhH766SeFkIackr29Pa1evbpAumgaAc/z9PTpU9q/fz8FBgbSihUraNOmTXTixAm1SLMIuH79OhuhFFSITNbjEgAKCQkh4OP6ieCIhKSvr0+DBg1Su97OuXPnmLMxMyn8gl2rxh/rOm3aNJXr+OrVK4Vetm/fvnlqXcl6lcGqAAAgAElEQVS2VgnIP6BLxntMAPIMEszKyqLRo0eza21tbQu0BiBbyCagaHJFtat9dDp//fWX2p/zp9K5HMeRh4cHHT58mDlv+RGKzImqhLCwMLY26eTkpDYCeqEd79u3jwICAhTa8fv37z+vk/lckNeFkvEt5wt5iRSZKoESrl+/TkOHDlWacgkKnUUNaHr79i3r6dTBD/1d8491/DTmIifcvn1bQaFy5syZ+faqPM9Thw4dpHWuUiXX+JHMzEw2XWrSpEm+oyGe52nlypVsSl6hQgWVpjfXr19npOUOtYtuQzsrqS0MDAwKHG/0KVJTU2nDhg1KMUjGxsY0btw4evTokVL+ny4VyEju80RiYiKTTM4vXEQLNUFe+TK/nvfKlStsy7BNmzb5rtO8e/cux6ArQYO8sFKswjSmsLsCOSUhUrty5cp5TgMPHDhA5cqVY42rINOI8PBw1lPn5qyF7V6O4wq0vnb06FG2q6Srq5unXFBGRgY1aNCAAFCNKuqzYWXTjx1LYdbwIiMjadKkSUqqCnZ2dirtisXGxrKOwNLSMs94JZ7nSZi26ujoUGhoqNbZFAcyMzPJ1dWVNaDcFt3evHnDtgyrV69eoOAzsVhMBw8eZD28kEQiEfXo0YNCQ0NVnnfLGiGhEGs2+SUDvbxHbosXL2YjiSpVqhRK4mby5MnsJf80liYmJoYN7wcNGlTgvO/du6fg3CdNmpTjYuSaNWs0ZkMh34LINp88eZK6deumsHEiEomoe/fuBXYEqnaKCxcuZGXJ/q1FceHly5dMA8nKykqph8/OzqbWrVszp1QUPfGHDx/S+PHjlbYz69Wrp9Ii2vfff08AqI6l5s6xmJiYKCzKZ2Zmknyou729faFHZ0lJSWxHqE2bNgqOVrg3Y2PjXEPu80NsbCy1aNGC1bVbt24K98LzPJtGaMJ+7s0+jnLys8OaNWvIzs5O4T2oUKECTZo0iSIjIwv9jskvhMvWdhQQGhrKppOyUY4WxY3z58+z4X67du0Ueobx48ezB1gYZc+ckJycTGvXrlVS+zQyMiIfH58cY3ri4uJYHTXRWE6YfNQE2rx5MwllCs4WkGo/FTXuRLbQTgBox44dBEh33ITPVqxYUaT809PTSYj+BqTSscL6hHw5mrKhkP+tW7eU7uPRo0c5ii82btyYNm7cmOfCu6rgeZ6GDRvG8pbtQgFQPItVr169r/7M32eFvDi70DPI1igIgLAjolbwPE9nzpyhPn36sF5HSG3btqU9e/Yw5ycf5q+pxtLmG7ApTXh4ODuDBoB+/PFHtYT28zzPnJilpSUlJCSQvb09AdLT/uqIYeJ5Xgj5JwBkbm5OV65cEQTm1Lp282kSNLIFxymRSOjw4cPUsWNHhTgVXV1d6tu3L+XGjlgUpKWlUdOmTQmQBmKGhYVRRkYGO21uZGRU5MXtkoQvkhhJ1jPgzz//BAAsXrwYc+bMQXp6OlxcXHDu3DmNalhFR0fT+vXrlbSBqlevjjFjxiAuLg4rV66EbQ1gTZJmJTqqV6+OlJQUfPjwAbq6uggICMDo0aPVdu937tyhpk2bQiKRoH379hCItU6fPo127dqprZzdu3fT4MGDkZ6eDkNDQ9jZ2eG///7TqKbSSrtIHL8KeHp6ws3NDYGBgXj69Cn7vnLlyhg1ahTGjBmDGjVqaOx9ioqKombNmiE+Ph62trZwdXVl7/bu3btLDfl8cnIyfbE3kpaWRi1btsStW7fAcRyICObm5rh16xYsLS2LTRto79698Pf3x+XLl9nnIpEIPM+jWwvAL0zzmkAAUKZMGXh7e8PGRv3lHT16VOH+GjVqBC8vL7WX8/LlSwQHBzOaTECzIm6A1IbC8xLg5OSEcePGoV+/fsUmgnjixAn67rvvQHLcvpMmTcKyZcu+2DaaE7iUlBQyMjL6Im8qMjKS6tWrh+zsbHAch6NHj6Jz586f5V6uXr1KU6ZMwfnz59nLWxyNpbSjuGzIcRycnZ2xePFifPvtt5/lHfLx8SGB7rV27dp49OiRgnxvaYDul+psAGDDhg3IzpbqVBAR/P39IZFISEdHp9juKSYmhtavX48ePXrgzZtilrqQg6mpKapWrQqOU/+tp6enIyoqiv2/Ro0aTB1A3YiNjcX79+81kndeICJcuXIFvXr1wpQpU2js2LGoWbNmsb1H7969o2bNmrH/R0VFManl0oQv1tns2bOH+vTpA0Cqb33r1i0AwK+//oq5c+dq/L7Onj1L/v7+OHDgAMRiMfu8Xbt2KFOmDI4ePQrn+sDcV5qdUhkYGCAzUyoi1qpVK+zbtw+VK1dW2/1LJBJycnLCrVu3YGhoiIyMDFhbWyM8PBxly5ZVWzkpKSk0YMAAHDx4EABgbGyMpKSkYhnhNG/eHJUqVcLx48fZ5yKRCN27d4efnx/atWuXr8JoUSAWi8nDwwOnTp2Cvr4+zM3NER0dDTMzM9y8eRPW1tZfbDv9FJqlddcQHjx4QIIMRpMmTXD+/Hn069cPgFRRUrZLpHakpKTQ2rVryd7entq0aYM9e/ZALBajfPny8PX1xYMHD3D69GnO09MTAPBfhCZqoYi2bdti/PjxAKRKAc7OzlDnrsaGDRuYM1+6dCk4jsPz58+xePFidRWBFy9eUMuWLZmzGTBgAASF0Onmmps2+hpJ83Z3d8fx48e5x48fY8KECTA2NgbP8zhw4ADc3d1hb2+vUY20GTNmsMX4VatW4dixYyhbtizi4uLQu3dvqIUzuATgi+QOT0xMZGd4KlWqxALbkpOT2ZatsbGxWnWsHj16ROPHjycTExOF7XA7Oztas2aNUoyEjLpUo9viwpaujJMYa9euZdv1JiYmdOLEiSLff1xcHOO06dGjBwGAcAjTwMBALbwoV69eZcGcHMcxVjwhBkikZk7tnOJwjhw5onAfycnJTM0Scs/b2NiYJkyYoFbyKfnDsrKgTQCALO6JgKKfDNeikOB5nrp3707I5VzJkydPmFOoX79+kYKlJBIJHTx4UCkmQ0dHh3r27En//PNPrnnzPE/NmjUjAPRdc81FGnMcRxEREaweoaGh7P51dHTylXnJDwKRvqGhIaOTlHdCsmdRaOzcuZNx6QgyM8J3SUlJ7MyVJh1OlSpVcj15zfM8nTp1inr27KnEA9WpUyc6duxYkeKdwsPD2T02bdpU6bDwjz/+yMorDPeNFkXE3Llz2QOQHR5UwpEjR5iD6N27d4E5R+Li4mjx4sVUs2ZNhRescuXKNH36dJVP6gYFBWlslFPH8mM08aflfhoE6OfnV6gAvRs3brBGNnv2bIXfy5N3F5Y+9LfffmPPqWrVqjky140bN44A1RkmC5IEcjMZKVm+iIqKoilTpjBnK6Q6derQH3/8ka8qw6dITk5mjJQVK1bMkR84KyuLBV7q6+sX6aiOFgXE0aNHWQOQ8RPnCoHyEnk4pk9x48YNGjp0KCONF1Lz5s1p69atBeYfSU9PZw1f3eepIBvdXLhwIcc6fXrMwcPDo0ANgud5cnFxIQBUq1YtpZ5XLBYzLaQ6deoUyDbp6enUv39/VrcmTZpQTlLBgLSRC1xCXVzUZ8NvHaRlm5qaFpjULS0tjTZv3qzE3liuXDkaM2YMhYWFqZSfwLEtEonynP6+fv2anWmrUaOGWrmmtMgFT548IVNTU4IspD6/xTuJRMKmXiKRKFdRt8zMzBzJuAwNDWnIkCFF7lHOnz/PevGuruppMEIdZcPtXJGZmUnDhw9n1zdo0EDlNRd5/iGB8/hTyJ+Gl6mY5os3b94wRwZIDySmpKTk+Vv5YyzqdNgAaOvWrYV+vjzP0/nz58nLy0uBdAuQnvHbv39/rnScS5cuZdeqovp68eJF0tPTI0DKDV7sNJ9fE1JSUthisImJicoLdh8+fKC6deuyIav8qV6BBvJTxQRra2tauHChWnsRgScYAHUuYi8t5NOkSROVDg/yPE9Lly5lTs/MzIzOnz+f5+8+fPjA7PLdd9/lee2QIUMIkKpL5kfyfvfuXQVKClWpUiUSCVOUgBqcjpCPt7e32hRXY2JiaNasWUrvk5WVFS1atEiBevX06dNscb979+4q10He8RaE8bFUIDs7m0JDQ2nu3Lnk6elJLi4u1KRJE2rdujUNGjSIVq9erTaZVy8vLzaFOHToUIHyvH//PiOh+uabb+j48ePk6empcPiS4zhyd3enAwcOaETLiOd5klegqF654I2mo9PHl/ibb74psIzLwYMHmR309fXz5IARTtzr6+vn69zfvHnDTlPLyMZyxOHDh9niqL6+foG1qNPT0wXnRwCoqW3Bbdiw5kcb9u7du0hk7rkhN/paQ0NDGj58OB0/fpwxQKqixikPnucF7iEClJVrC4PMzEw6efIkzZ8/n7XjZs2akZubGw0bNowCAgLo9u3bn08KOy4ujubPn69AW5lXcnZ2puDg4EKfKl62bBnL69OFS1Wxbdu2HOsm0ECqc/s8NwgnouWH3t/UKbhEh4eHR4GdjYDbt28rEN9PmzZNycHevXuXOWNVe9GVK1eyPHPauVu+fDlbezMzM6N///23UPVPT08nYUQlpA6O+dtQWK8Rko+Pj0aczae4du0aDRo0SEmSGpCGFHyqmKEKUlNTycHBgYCiKce+fv2aZs2alS+BupCaNm1KmzdvLhCfeJGxd+9eZcWDHKgD3Jspy0w0b968wEfsT506xV7+rl27FtjLPnz4kPz8/JT4TCwsLEiTQVx54ebNm0r8t4BUnsOhNqiZLaimhVSyQ/57Y2Nj2rBhQ5F7mtevX1Pz5s1Zvp6engprKMJCc/Xq1fNdWxGQnZ3Nprz169dnjTkrK4vkSezr16+vlridgwcPUtWqVZVsWL2ydOTTpK5UJfbT762srHJdy9MkYmNjad68eWyEKaSqVavSb7/9VmACs6dPnzJq04KGfvA8T//73/+U4slyGnW3+Ua5HTdq1Ehl+aBCQywWK7w4+gXg523XVNGrq8qrK08+VKdOHZWHnmKxmPbv30/u7u5KfCbC/FpHR0cjvCaqQiKR0PHjx6lz5845anzJJyGwUJ0SHWlpadSvXz+F3ismJkZQMSDgI9mWqpCRoRMAWr58OcXHxzOicADUsWPHAm8b54WMjAzaunWrgvPMLbm5udGOHTuKt3f+BPKL8AL9rZD09PRowIABdPnyZZU7lGPHjrH3u0+fPir9Lj09nXEjA6Cyhqq3Y3nyfh0dHVq9erVmbCkWixWGsU52hVu0E0irOY4j2RQnT8MIQXPlypVTSSXz3bt3tHDhQiUS9CpVqtCMGTMoOjqa4uLiWGxNlSpVKCYm5rO9gAKSkpLo1KlTtHr1apo5cyZNmzaNlixZQrt37851q1gd4HlemKKyUZ8wepU5igJDoB0tV64c1apVi+Xt6+ur0V2Vt2/f0qFDh2jFihU0ffp0+uWXX+iPP/6go0ePlgiZkxs3brBQi9atW1N2djb9999/NHLkSBb0KCRHR0f6888/VQozkA/9kO165YpP18DaNy1cO65e+WNdly9frn7bTpkyhRVQ1N0BQZ6D47g8o3TlOXnlKRdzwrVr12jw4MFKMi8uLi4UHBys1KvdunWLPXxnZ2e1aft8qQgJCVGwnY6OTqFlkKOjoxVimHR0dEi2s/LVIi4ujnWC1apVozdv3ijY4/3797R06dIcg0yFjjK3vCUSiRD4SSKRiE6fPp3jtTzPk7DxAjW0Y+f6H+upVkHBCxcusGFbUSspJCFC1srKKsdpgiwUnwCQTDVACblJqBoaGtKwYcPynWPKLyLLQve/auzcuVPBjvPnzy/UWtGGDRsUdv800gN+QZBIJEz9Q09PL0/lDEEtxN3dXeFZ6OjoUJ8+fejcuXM5PpP4+HiysbFhTionByXPS62udixIFZmYmKhnJC4Wixljfu1q6o2SFXZdZGHrDBcuXMgzuOn58+c0bdo0pYXrWrVq0ZIlSwq0eyOEzAPaMypCo5DfQRs0aJDKoz+JRELyZ36EZ+jg4FBsuu0lEb/88guzSUFGeg8ePCBfX18mwyOkxo0b04YNGyg1NVUhrzt37rCp2aej9vj4eLbA3LKRetuxID8tHOotEmTxLmr1ivIJkAaLJSQkECCVoxV2HqytrRWcR2hoKPXs2VMpdsbDw4MOHTpUqNiZrKwsatWqFQHSuBBV1A9LI/bs2cNsun79eoUAuxYtWuSr6ZWUlKTwm1atWpG8/vXXOqU6ePAgmx0URrcLkLIirF69mjEjCCkneRp5AYExY8awzxcvXiztBHQ1144BFJ3kvWPHjgSAHOtppqK6OtKK/vHHH5SVlUVubm5sWnTz5k0StICEw21CMjExURs9gPwZFUtLS6X5dWlHWloaWVlZESDdyeF5nsRiMf3888/M3jVr1sx1TefZs2fUqFEjdu2QIUPYmpmwG2JqapqnOmhpxOPHj9m2s4ODQ5HlZCQSCf3999/UpUsXhZ1XjuOoW7dudPLkSeJ5nuRH7UFBQcTzPFsb0kQbPmFiQ1UqSMuTBYuqBCUmsZSUFDIxMYFEItEo25pHYiTatm2L+vXrIzAwEACwcOFCREdHY9u2bQpE2o0aNYKvry8GDhwIdVKiXr58mVq3bo3s7Gy0bt0a//zzD/T19UsNu1pemDlzJs2bNw8ikQg3b95EkyZN2H1v2LCBxo4dy8jFdu7cqcAVfenSJerVqxdiY2PBcRwWLFiA6dOns++joqKofv36yMjIwMiRI7Fp06avwqYpKSnk7OyMsLAwVKhQATdu3EDt2rXVdu8REREUGBiIzZs3IzExkX1er149+Pj4YMeOHbhy5QoMDAywZcsWeHt7A9AsL7RHYiSsrKzw4sULle5T6aIzZ85Q27ZtAWi+ovL0mNWrV0dMTAz7XldXF7169YKfn59GSa3Xr19Po0ePBgBMnDgRK1euLPWNIyIigho2bIjMzEz4+Phg7dq1Svd8+vRp6t27NxISEiASifDHH39g3Lhx2L59O4YPH47MzEyUK1cO27Ztg6enp9Lvf/vtN5o9ezY4jsOVK1fg7Oxc6u3q5eVFO3fuBMdxOHLkCLp06aKRe05JSaHg4GD4+/vj/v377HMjIyPwPI+0tDRUrFgR8fHxMCoD7NXXvHJITEwMqlevnu/9KlGMPnr0CABQQTMc2QoQnA0A5mwsLCwwa9YsPH/+HLt37+Y0zaA/evRobuTIkQCAlStXQhYAV6oxceJEZGZmwszMDPPnz8/xmnbt2nFXr16Fra0teJ7HhAkT4OTkhAEDBiAzMxOWlpY4f/58js4GACZPnoxatWqBiODn5wdNnFMrSVixYgXt3LkTADB79myNORsAMDIy4saMGcPdvXsXZ86cgaenJ0QiEVJSUpCWlgYAiI+PBwA0rKWpWijiyZMnKl2n5HDevXsHALCoqN4K5Qc3NzeEhITgxYsX+P3337ni0pYCAH9/fzRv3hwAMHLkSBTmnMuXgiNHjtCRI0cAAPPnz0fFihVztbOtrS135coVtGnTBgBw8+ZNAFIe6WvXrqFp06a5/rZs2bLcypUrAQDXr19HUFCQ2u6hpOHs2bM0ZcoUAECXLl3w66+/Fku5IpGIa9u2Lbdv3z4uKioK06dPR6VKlRSuMTLUbB10ZB5EXhAyLyg5HEGISwNqI3lXRCSCjo5O8RYqg6GhIbd3715UrlwZ6enp8PT0REmIUlU3MjIyaMKECQAAR0dHCCO7vJCZmYnU1FSFz1JTU1lPmhe6deuGTp06AQCmTZtWKm0aExNDXl5eEIvFqF27NoKDgzWq8JAbdHV1oaurq9SGpjzVrOqF4CfkBfzygpLDETzk2wT1VSovmJubA5AqDnh5ecHa2hpz5swpMBNbUVGjRg1u9+7d0NHRQVRUFLy9vVHaiI6WLl2Kp0+fguM4BAQEID/9rtu3b1Pz5s1x/fp1AECHDh0gEonw+PFjODs74+zZs3naRyQScatWrYK+vj7i4uKKrecvLmRmZlLfvn0RGxuLsmXLYt++fahQoUKxOhuBBKxmzZr4/fff2UijRo0aAIC5NTQrliiWSP+amZmpdL2Sw6lbty4AIC5R6Vq1w9DQEJGRkdi1axdat24NAHj9+jXmzJkDKysreHl50fnz54uNj6NNmzbcsmXLAAAnT57ErFmziqPYYsHz589p4cKFAIBhw4blu4h74MABatmyJaKjo2FgYIBt27YhNDSUO3ToEIyMjBAfH48OHTpg8+bNeT4bW1tbbtKkSQCAtWvXlqrp6o8//sgkkDds2AAHB4dicTbp6em0efNmatKkCbVq1Qo7d+5EdnY2jIyM4Ovri/DwcAg2D3tWHDWSKoWqAiUDffjwgSpUqAAi0vgulZubGy5evMjqcPfuXQoICMC2bdsUhuwODg7w8/ND//79Ua5cOY0+VJ7naeDAgQgJCQEA7N27F7179/7id1h69+5Ne/fuhampKR4/fowqVarkek+LFy+m6dOng+d5VKlSBfv374ebm5vCc+rWrRueP38OQKqBvWjRolxlaVNSUsjOzg4xMTFwc3PD+fPnP8u0Q53YunUrDR48GADg5+cHf39/jd/P8+fPKTAwEJs2bVJQJ7W1tYWvry+GDh0KExMTDpDK7zg7OwPQ/G6zubk5Xr9+rdIzVRrhmJqacm5ubgCABTU1MxzrkS7NV5jfC2jcuDG3fv167uXLl/jjjz/YaOvOnTv44YcfYGlpiZ9++omePHmisV5SJBJxGzduhIODAwBgyJAhUJUYu6QiNDSU9u7dC0AqFJibs8nKyqJhw4bR1KlTwfM87O3tce3aNQVnA0if07Vr1+Dq6goAWLZsGTw9PZEbx5CRkRG3YsUKAMDFixfx119/qfHuih+3b99moRRubm4Q7k1TEKRqbGxssHjxYrx//x4ikQhdunTB33//jYcPH2LChAmc4GwA6RqdhYWFRus1ylDajrt166ZyB5LjRdu3bydNBg15JEZCX18f0dHRMDc3z7WiEomEQkND4e/vj6NHj8otaHP47rvv4Ofnh++++y7ftYjC4OnTp+To6IiEhATY2tri2rVrMDU1/eJ65aysLHJwcEB4eDgaN26MW7du5TgSiYuLo969e+PcuXMAgM6dO2PHjh0wNjbO9Z7T09NpxIgRbDTo4OCAw4cPw8rKSuk3PM+Tu7s7Tp8+DQsLCzx69AjyDeRLQXx8PDk6OiIyMhIWFha4desWqlWrpvb7SElJoa1bt8Lf3x8PHjxgn5uammLYsGHw9fVFnTp18ix31qxZ9Pvvv6OMAXDAUDPtGJDuQjo5ORXeBpmZmYwoyKG2ekOjDfWl4dDyKoOqIDIykiZPnswOownJxsaGli1bphHuk7///puFk/fo0UMjnMeahrxCQG70np9qWU2cOFFlDhue5wX1TwKk3DpXr17N8bdhYWHskKjsCMUXBYlEQp06dWKHXQtLl5oXnjx5QhMnTlRi5bO3t6d169apzMQISDmnhYOd6pTZOWFiQ5WMpfUqLH+SEmTyp2o9i9HUVpqfmZlZvgcDc0NqaipbMIPcAylTpgyNHDmyUFyxeUEmgULAR1ndLwWvXr1i5OUDBgzIse4nT55kEjy6urq0bt26Qt3jrl27GB+OoaFhrqyBAqG8rq6uyhpOJQW//vorexdkXM5qAc/zdOzYMerUqZOSyqunp2euXDeqYM2aNWpvxwKpf5kyZdTLCT5ixAi1Vda14UfnIC/pWljwPE+XLl2i/v37M0oEIbm5uVFISIhaaCV5nmfUjBzH0bFjx76YRiIIzpUvXz7HMIPAwEA24jA1Nc2TGE0VXLt2jemEA6DffvtNaYcxMTGRXdOuXbvPpwhQQBw+fJg5A29vb7XUOTExkVauXMnkjIRUqVIlmjZtmsoqr3lBIpEo8OwUtR13dvlYz1WrVqn32aWnp1Pnzp1ZAYUVcxOIt4D86RALgzdv3tDvv/+uxBdrbm5Ov/76K718+bJIZSYmJpKdnR1rmOpYtJZIJHTlyhVatmwZjRgxgrp27UqdOnWi/v3704wZM+jgwYNFInqXDfdztLlYLFY4XVynTh219VQvXrxQUKX09vZWUu6UJ0HLj9UxL2RkZNDJkydp7ty5NHjwYOrcuTN16dKFhgwZQvPmzaPTp0+rRaEhIiKCjQIbNWqkxElTUISFhZGPj48S503Tpk0pKChIyV5FRUJCggJhXWGdTSObj3WdNGmSZjqL9PR06tatGyuooDrPggIBx3EaZ4HLysqiPXv2UJs2bRQepK6uLvXt2zdX5jRV8PDhQzY9adSoUYHm0vJ4//49LViwQMk55pQMDQ1p6NChdPfu3QKVJRaLmTqEvJICIHWe8vy2bdq0Ufv6V3JyMvXs2ZOV4eLiokD/wfM8tWzZkoCCKUQIiIqKookTJyopcuSUKlSoQFOmTCk0M11qaiqj4TAxMSl0ZyMQ/Ldr106hfnp6euTt7U0yJVON4cOHD4wGBgCZVyhYOxYoZQDQ9OnTNTsylUgk5O/vz3SeAZCOCNS8fs6Vrltd8aHXrl07X8VHdePevXs0ZswYJXmORo0a0bp16wo1ejhw4ADLx8vLq8BG37lzJ1WsWFGhPmYmIPdmina0raHccCZMmKAyt4qMVZ8AUGhoKPtNZGQkNWzYkH03YsQIjWk0SSQSmjp1KivLyspKQRzx9u3bTLVCxo6XL8RiMS1cuFBpCm1lrrgo2skZZPmJVEyZMmVo1apVBV74F6alhRFiBKQdzOLFi5UI/i0sLGj27NnFGlGflZVF8+bNU7Cfrk7u4giftuPq1avT8ePHi68dP336NEf6w9xSzZo1afHixYUeDagDHz58oFWrVikxp5mYmNDEiRMLTOY1c+ZMlodMqC9fZGZmKqgmFkRqR15jqV69evnW9+3bt2z437t3b3bthQsXGD2rSCTSyNQ2JwQFBbEX3MjIiA4fPid3WV4AAAmUSURBVMzK9fX1ldpDBZXPd+/eUYsWLZgtCjLSLl/2ow3bt2+vsmSNbI2CAJDsuauM27dv0/Dhw5WUGVxdXemvv/4qFjG+3PDgwYMcVSNyS9WrV6d58+apVeqnQEhMTKStW7fSmDFjyMXFhaytrcnCwoLq1q1L7dq1o2nTptHx48dLlOi6RCKhkydPUvfu3RV2AgCpouXhw4dVqq9YLGZboyKRiE6dOpXnb7KyshT0gFwbFm4OLfze0tKSIiIici1z+PDhBEgpXIVFx61btzJ1BiMjo0L11EXBuXPnqFKlSmyksHz5cuJ5nt6/f8/0xzp16pTriDEuLk5BQLAw9uvW4uPzdnFxyVfrS55j+7vvvlNpZJSdnU07duxg00UhGRgY0JAhQ+jGjRslpj0A0piioKAg8vX1JRcXF7KysiILCwuqVasWeXh40IwZM+jIkSNfNTe1WhAVFUVTp05Vmt7UrFlTJUL2+Ph4FrdiZmaW527CsGHDitRQ5JOB3sfpSU7rLleuXGHOdN68ecTzPE2fPj3XaU1xIiIigi28A6AffviBMjMzBRJ7AkAHDx5UqltmZiY5OjqqzYZCPm3atMm1g5Hn2K5Vq1a+a1xv3ryhuXPnMspaIdWoUYMWLFhA79690zZYLaS8vkFBQUx4T0iC+HxekjN3795la1qOjo457izIr/kUtaEISU9Xmt/AgQMVypNIJKxh1qlTh+Lj44UpFQFSRv/PzduckJDApFMAadDYu3fv2A5KrVq1lNap5GNf1GVDIb+cNjGysrLYCKVMmTJ069atXG125coVGjBggJJ+eJs2bWjPnj0laoSvRQkCz/N05coVGjhwoNLL4+rqSsHBwTnKpmzfvp1dN2zYMIUpQWJiIhOLb2ar3ihPocyjR4+y8tavX88+37Ztm4IT/f7779W+1VpYZGdn09ixY1nd6tatS3v27GEjM5miJADpwr8QJ6RO+wk2NDQ0VFA/AAAZITgBoC1btijZLDddtLJly9KoUaMKvKOoxVeO2NhYmj9/PlWvXl3hhapSpQrNnDlTaXtViJwFQIGBgew7IcJTR6T+xvJNHWl53377LQHSnRBhjaRVq1YKW+5z5swpkQ1gzZo1bJeqQoUKLN7L0NCQoqKiCPi4HmVRUf02rFBeah+ZphYARbkVHx8fBbvFxMTQjBkzmEa9kGxsbGj58uVM8kiLvPHFHZ4rLmRnZ9OhQ4fg7++PM2fOsM91dHTQs2dPgdwdEokEHTt2xJkzZ6Cnp4ezZ8/C1dUVDRs2RHh4uMaoAYSDc/fu3UNgYCDWrl0LPT096OrqIj09HYaGhggKCoK3t3eJfcbHjx8nLy8vJCUlQVdXF/r6+khLS0OvXr2wadMmWFpaIiMjQ6M2NDExwcuXL/H06VO4uroiLS0NLi4uOHfuHAwMDLhz587RmjVrcODAAYjFYgDSw8MdO3aEn58fOnfurJHDw6UVWkOpgPv371NgYCC2bt2KlJQU9nnDhg3h6+uLTp06oXXr1oiOjoaFhQVCQkLQrl07AJrjIhkkisTbBGDUqFHYtGkTeJ5n35mbm+PgwYNwcXEp8c83LCyMunbtiqioKIXPJ0+ejKVLl0JXBzhqpFmnHRwcjNmzZ+Pp06cwNzfHxYsXcebMGfj7++POnTvs+vLly2Po0KHw9fWFnZ1dibdtSYTWaAWALBwA/v7+TN0CAIyNjdG5c2fs27cPWVlZqFu3Lp48eQIDPeBQWc2SH1WoUAEJCR/5YBs3bozDhw/D2tr6i3m2b9++JU9PT1y4cIF9ZmJigsTERDjWA+a/0YwN/cpH4kkMUKdOHUREREBHRwd9+vTByZMnFWxqZ2cHPz8/DB48OE+6Di3yh9Z4hQDP83Tq1CkEBATg0KFDCqMLeTSvD/z+SvOaQAK6deuGkJAQlC9f/ot7rhkZGTRq1Chs3bpV4XNNjRAFyNuQ4zjGuSQQXI0bNw7u7u5fPENhSYHWiEXEs2fPaN26ddi4caMC7SNQvI3F2toaderUAVfcchtqxrNnzxAREcH+X5w2BIAKFSpgxIgRGDt2LGxsbL5sY5ZAaA2qJqSnp9OuXbuwZs0a3LhxA0DxN5bSiOKyob29PcaPH48BAwZonDf7a4bWsBqAh4cHnThxolgai0gkgsCvW5qwY8cOJCQkFIsNGzRogAcPHmjbQjFA93NXoDTCzc0NJ06cwOgykVifrtkGY29vn6M2+JeOXr160f79+zVaxpLakcAtwMnJSYE3WAvNQUm1QYuio1mzZgCAZ280V8Z8maKGUFZpg3Bfw/U0N2288UixLC00D63D0QCcnZ2hq6vZweOFe9K/gqRPaUPLli0BAC/jNFdGokzBuLTasCRC63A0ADMzM87T0xOANNZDE+B5afyPl5eXRvL/3GjVqhVsbW01lv8KW+lzcXR0RJMmTTRWjhaK0DocDcHX1xcA8CRG/Xn3zJA2liFDhnyRMTeqQEdHhxs7diwAzezGnZDKpcPX11cbY1OM0BpaQ5CpPeDgwYNqFSL73SoSF+4BFStWRFhYGKpWrVpqn2FaWhp98803ePz4MWyqAWtT1WPDobqReP0eaNKkCa5evQp9ff1Sa8OSBu0IR0MQiUTcunXrULFiRaRnAiP01dNLC2s3/v7+pdrZAEDZsmW5oKAgcByHyFfAnOpFt+HUylJno6enhy1btmidTTFD63A0iKpVq3IhISHQ19dHzDtgpEHhG8zq+pFsauHr64vvv/9eXdUs0XBzc+OWLVsGALgcBsysWngbTjaLxH+yIOaAgAA4ODhonU0xQ2vwYsCRI0eoV69eyM7OBscBfxsXbGowkIvEuw/Sf48ZMwYBAQFfHSXCkiVLaMqUKQCAcobAPoOC2bB7WiQys6X/Xrt2LXx8fL4q+5UUaI1eTLh48SINHjwYT58+BQCVTpKPNIhE9Fvpvw0MDLBw4UJMmDDhq3M2AkJCQsjX15ed5K5oDGzn8rZhX3EkkmTb35UrV8aGDRvQq1evr9J+WnxlSE5OpgkTJjANblVTu3btvjgdbk3h5cuX1KdPHyXljbySjo4ODRgwoNB69lpo8UXj3bt3tGjRInJ2diYdHZ0cG0mtWrXI19c3TxLvrxkRERE0depUatCgQY724ziOGjVqRDNmzKBnz55pbVhCoB1afmakpaVRREQEYmNjIRaLUbFiRdSqVQtVqlTRPhsVkZCQQJGRkXj37h04jkOVKlVgY2MDExMTrQ210EILLbTQQgsttNBCCy200EILLbTQooD4P15Z6vpHuLTDAAAAAElFTkSuQmCC;opacity=50;sketch=0;imageBackground=default;imageBorder=none;fontFamily=Times New Roman;fontSize=13;" vertex="1" parent="1">
          <mxGeometry x="240" y="347.3" width="138.51" height="63.4" as="geometry" />
        </mxCell>
        <mxCell id="sGhclLiKgmVHKod2IJ2O-13" value="Attack Network" style="shape=image;verticalLabelPosition=bottom;verticalAlign=top;imageAspect=0;aspect=fixed;image=data:image/png,iVBORw0KGgoAAAANSUhEUgAAARwAAACCCAYAAACU73dnAAAABHNCSVQICAgIfAhkiAAAIABJREFUeJztXXdYVMcXPW+pKgIqCoqCoiIqSlQQEDUWlNgVC8HeoiJYklijRmPsLRbA/sMowd5blNhi77EgFgQVLCiC9Lb77u+P3TfuupQFdhFxz/fNh+6+nZl335s77c45gBZaaKGFFlpooYUWWnwVkEgk9LnroIUWWnxF0DodLdQN3c9dga8VPM/T48ePcfnyZTx48ACxsbGQSCSoUKECbGxs4OzsjGbNmsHQ0JD7XHUUi8Wfq2iVkJ2dTXfv3sWVK1fw5MkTxMXFgeM4mJmZwdbWFq6urrC3t4euru5ns6EWWnxWpKSk0Pr166lRo0YEIM9UsWJFmjx5MkVFRWlHGnKIjY2lefPmUfXq1fO1Yc2aNWnJkiUUFxentaEWXxeOHDlCVatWVWgQ+nqgpragbi1AJ0xsqFVjUEVjxUajo6NDM2fOpMzMzBLRaHie/yz1kEgk5O/vT2XLllWwj1EZkGtDqf1OmNiQc31QWUNFGxobG9PmzZvpc9VdCym0Q81iQHZ2Nvn6+mLDhg0AAI4D/ja2Uem3/cSRSEyV/tvBwQEHDhxArVq1vrrnFh8fT3379sWpU6cAAIb6wMEyqtmwW1oksrKl/+7atSu2b9+O8uXLf3U2LAnQGl3DyM7OpkGDBmHHjh0AAIfawJI41RqKPDwSIwEA1tbWOHv27FfldOLj46lDhw64efMmAKCLCzA+vGA2XFI7EqduSf/dsmVLHD9+XOt0PgO0BtcwRo4cSZs2bQIAnDApuKORR9fUSGSLgZo1a+LWrVuoWLFiqX9+WVlZ1KpVK1y9ehVA0W0oOO727dvj5MmT0NHRKfU2LEkQfe4KlGYcPHhQbc4GAI6Us4GuDvDs2TNMmDChyPl9CViwYIHanI18HqdOncKqVauKnJ8WBYPWu2sIiYmJZGtri9jYWDSzBRbEFr2xCBB66aNHj6JLly6l9hneu3ePmjRpArFYrBZnIw+PxEgYGhoiLCwMtWvXLrU2LGnQjnA0hK1btyI2NhY6IvU6GwBoUlf6d8mSJWrNt6RhxYoVEIvFsKio/rwrlAcyMjKwZs0a9WeuRa7QenYNgOd5ql+/Ph49eqT2nlmAMMq5e/cuGjduXOqeY1xcHFlaWiIzM1OjNjQxMUFMTIx2AbmYoB3haAB3797Fo0ePNFqG0Ovv2rVLo+V8Lhw6dAiZmZnQ02AsPMcBiYmJOHnypOYK0UIBWoejAVy+fBkAUM5Qc2X8KbFRKKu04cqVKwAAx3qaK6OBtfRvabVhSYTW4WgA9+/fBwB8U0fzZd27d0/zhXwGCPc1J0Yz0ykAWJFgo1CWFpqH9vCmmnH+/Hnq3bs3AODXaM01FgFv376FkZERcVzpWYIgIjbCKQ5cuHABJ06cIHd3d21cjoahdThqQGpqKv31118ICAhAq1atir38lJSUYi+zNCE1NRUeHh6oV68eVq9eTUOGDIGJiYnW8WgAWqMWARERERQQEICgoCB8+PBB6ftOzsDEh5ob5Qg7VQBQpkwZjBs3Dg0bNtRYeZpGVFQUVq5cqWBLTe1QCZC3oQAjIyMMHToUfn5+sLOz07YRNUJrzAJCIpHQ8ePHERAQgL///htE0sPHIpEI5cqVQ3JyMgwNDZGRkYGaFsD6dM06HI7jWB10dHTg7+8PHx+fL+657t69mwYPHoz09HSFzzXpcITzVcLzKleuHDIyMiCRSNg1HTp0wLhx49C5c2ctr44aoF00VhHx8fG0bNkysrW1RdeuXXH8+HEQESpVqoQpU6agc+fOSE5OBsdxmDZtGgDg2RvN1We2pbRnbty4MftMIpHAx8cHEyZMILFY/MXQMMybN4/69euH9PR0CGtRTZs2BQAMFimPQNSFaw+lf318fKCjo4PU1FS0atUK06dPh5mZGQAgNDQU3bt3R926dbFs2TKKj4//YuxaEqF1OPng9u3bNGLECLK0tMSkSZPw9OlTAECzZs0QFBSEmJgYVK5cGUeOHAEA/Prrr/jxxx9RpkwZjdbrygPp34kTJ8LS0hIAYGJiAgBYtWoVunXrhsTExBLdODIyMmjgwIE0c+ZMEBFMTU1BRDAxMcHChQsBALEJmis/OU36d/To0Vi2bBkA4OzZs9DV1UV0dDS2bNmCZs2aAZBO9yZNmgRLS0v88MMPdOfOnRJt25IKrcPJAVlZWRQSEkItWrSgJk2aYPPmzUhPT4e+vj4GDhyIy5cv4+bNm9ywYcO4ixcvshFN165dMXv2bJiYmHADBw4EAAzT01wPbW5ujv79+2P58uUApEFswqL18ePH0aJFC0RGRpbIhvH27Vtq164dgoODAQAtWrRgazdz585Fhw4dWGNfWkf9Nvy1mjTPdu3awc7OjpswYQK+//57AMDvv/+O0NBQDBkyBNevX8fly5fRv39/6OnpIT09HRs3boSDgwNat25Nu3fvpuzs7BJp45IIrcORw8uXL2nWrFlkZWWF/v3749KlSwCAGjVqYP78+YiOjkZwcDDn6urKAcCzZ8/o+++/h0QiQd26dREcHAyRSMQBgJ+fHwDgVZz669kpSdpYRo0aBQMDA65fv35o27YtACAiIgK//fYbOI5DWFgYnJ2dcfHixRLVIO7fv0/Nmzdn9v3555+Zs2nUqBF8fX0hEom48ePHAwD+uan+OlwNl/4VnpNIJOI2bdoEe3t7AMCgQYMQEREBkUjEubq6ciEhIdyLFy8wZ84cWFhYAAD+/fdf9O3bF7Vq1cL8+fPp7du3JcrOWpRQnD17lvr27Uu6uroKtJRt27alvXv35rgekp6eTs2aNZNSXBoZ0f3795WuGTNmDAEgEfeR/rKoybbGR67epKQkVub9+/dJR0eHANDkyZNp3759jIpTX1+fgoODS0RjOHbsGBkbGxMA0tPTo82bN9Py5cuZzc+dO8fqKRaLqUWLFlJ+Z2P12dCojLSsjh07KlGOPn78mNXP3t6eUlJSlOyWmZlJ27dvZ3UTkr6+Pg0ePJiuX79eImytRQlCSkoKrVu3TonM3MjIiMaOHUthYWF5vjRDhw5lv9m1a1eO1yYnJ1OtWrUIAJUzLHqDcaz3sZ5nzpxRKvPHH38kAKSrq0vh4eF069YtsrS0ZL+ZMWMGfU7pl5UrVzKnWKlSJTp79iy9fv2aNXBvb2+luj169IjKlClDAMjavOg2rFrpI8fxixcvcrTFwYMHmc28vb3z5EG+efMmDRs2jAwMDBTeI2dnZwoODi4xPNQlBYXe5ktNTaVr167h3r17ePXqFTIzM1G+fHlYWVmhWbNmaNy4cYmM2nz8+DEFBARgy5YtSExMZJ/b2dnB19cXgwcPzjfoKyAggHx9fQEAkydPxtKlS3O9/t69e9S2bVvExcWhrCGw36Bw27wTTCLx8IX032vWrMG4ceOUyvzw4QPVq1cPsbGxcHd3x8mTJ/H69Wv06NEDN27cAAD06dMHf/75J8qVK1dszyY7O5vGjRuHdevWAQDq1auHI0eOoE6dOhg8eDC2bdsGIyMjPHr0CJaWlkr1OnDgAPXt2xfZ2dmoWgnYIi6cDQcgEnGJ0m3ww4cPo0OHDrnaYMaMGTR//nwAwMqVKzFx4sQ87fXu3TvatGkTAgMDER0dzT43NzfH6NGjMXr06Bzv7XMjJSWFrl+/jjt37uDNmzesHdeoUQNOTk6fV2aH53m6ePEi9e3bl/U6uSVzc3P6+eef6fnz55/dw0skEjp06BB5eHgQx3EKagg9e/ak0NBQlet44cIF0tPTIwDk7u6u0vbzvXv3qHLlyqzcNt8UrKfWEX2065o1a/Is788//2TX7tmzh4iIUlNTqU+fPuxzR0dHevnyZbE8l4SEBHJ3d2dlu7u7U0JCAhERnT9/nn2+ePHiPOtz8OBBZneg4CMd4XeGhoYqPW+xWEweHh5sxPjvv/+qZK/s7Gzat28ftW3bVqE96OrqkpeXF124cOGzK0fwPE9nz56lPn36KC0jfJoqVqxIkyZNomLffIiOjmYPQD5VMpbKnLjZg+xrgcoYKEucTJ06lTIyMordyO/fv6clS5awaY2QzMzMaNq0aQV2hq9evWIyL9bW1gXSOoqJiaFOnTop1KOOZe4Np803ina0srKif/75J9/yJBIJW1uoUaMGpaamkvD5zJkzWX6WlpZ069YtjT6TJ0+eUL169ViZY8aMYTs6YrGYHBwcCADVq1ePsrKy8q3L7du3qXHjxgp2cayXuw2/qaNoQycnJ3rw4IHK9xwXF0c1a9YkAGRhYUGvXr0qkL3u3btHY8aMUZK1adKkCf3vf/+jtLS0Ym8Tjx8/Jjc3N6V2bGYCaibXjj+V2eE4jvz8/HJc01I7du/eTSYmJio1FPlkXO5jhe3t7Sk8PLxYDCzMqz8dhTk5OdGff/5ZKOeXlZXFGrKhoSHdvHmzwHnwPE/btm1TSQRPSBUrVqRp06ZRQWJqbt26xUZyMifDsG3bNtLX1ycAVLZsWdq3b59GnsnZs2epYsWKrNNZtWqVQjn+/v7sHk+ePKlyHTIzM2nx4sUqieAJqVatWrRy5cpCbV/fvHmTDA0NCQC5ubkVak0mISGBVqxYQbVr11bsrCtVoqlTp9KzZ8+KpV2sW7dOoU3Uq6FaOzaRa8e1a9emGzduaK6+wcHB7OU1KlO4RTuhsubm5hpzOpmZmRQcHEwuLi4KD9XAwIAGDx5M165dK1K5Pj4+LE/ZtKXQ4Hmezp07R+PGjSNHR0eFl0BHR4dsbGyof//+FBQUVOheUKivvr4+PXnyRCGPixcvKkzxFi1apNZh/qZNm9j0x9jYmI4dO6aQ97t376hChQoEgDw9PQtVbnZ2Nu3du5eGDx9O9evXV5hu6evrk729Pf3www906NChIkddBwUFsbzHjRtX6LwkEgkdPXqUvvvuO4V3VCQSUa9evejUqVMam24tWbLko6Mr5I4fx31ccL969ar663ngwAESiUQEgOpbF22HQJhqWVhY5Lo7UBhER0fTjBkzqEqVKkpTkIULF9K7d++KXNb//vc/lq+fn5/aDc3zPCUnJ1NCQoLajiS8f/+eKlWqRACoa9euSnlGRUVRw4YN2X0NGTKkyNNeiURCkyZNYnnWrFkzx3CBkSNHEgAqU6aM2tb4JBIJffjwgRITEzXSaIUQBwC0bdu2Iuf/6NEjGj9+PJUvX17hvW3YsCGtXbuWkpOT1XYP8qNJeYXSwqQK5T86nbt376rPzm/evGEvrKpDr/ySob60sh4eHkV+KU6fPk29e/dWWvRyd3en/fv3q63h3rhxgw2pW7ZsqdJaQ0nBhg0bmF0OHz6sVO/ExESFdaVWrVoV2kEnJydT9+7dWV5ubm45BsJdu3aNdWJz5879YmyZkZFBzs7OzFH+999/aql7UlISBQQEUP369RXeYxMTE5o4caLS6LSguH//PptCt7BXTzsWnI6Dg4P6tv2FXQ1DffUFXMlPrzZt2lTgiiYnJ1NgYKBCzwyAypcvT35+fmqfrr19+5asrKwIAFWrVo3evHnzxTQQQLow6+joSADIxsaG0tPTleqfnZ1NEydOVFjvyC8G6VO8ePGCLQADoIEDB+Y4WuJ5npo3b87WAj7HRkJREB0dzUbSNjY2aj3IyfM8hYaGUo8ePRR2UjmOo86dO9OxY8cKHEMlFotZcGqVCpppx7Nnzy66DWQvHAHqreQJExvq4PjxxVZ1FPLw4UMaN24cCxATUoMGDSggIECtw08BYrGYbW3q6+vTpUuXvqjGIeDKlSvMXr///nuu97Bu3ToWlGdsbEx///23Svd79epVsrCwYI1j/vz5uf5u48aNrC6HDh36Iu155swZZqfOnTtrJJAyKiqKJk+ezNa5hFS3bl1auXIlffjwQaUyZTbWSDsWnE758uUVIt4LBV9fX414xU+945EjR3KtqEQioQMHDpC7u7tS7IynpyedOnVKoy/szz//zMpcu3btF9k4BAwfPpxNBfLaEQkNDSVTU1NmZ9ncP1fs2LGDTTfLli1Le/bsyfX6+Ph4MjMzIwDUpUuXL9qeS5cuZe/GnDlzNHYvqamptGnTJoXRIwAqV66cStHwHTt2JCDv0IGiJJEsPiy/90QeShGEEomEKlWqhA8fPmiM/Gi6eSRuPQa8vLywc+dOhTrExcXRxo0bsW7dOjx//px9XqVKFYwcORJjxoyBlZWVRiMft2/fTt7e3gCA4cOH43//+1+JixAtCGJjY8nW1haJiYno3bs39u7dm+v9PHz4kLp27YqIiAgAgK+vL1auXAk9PT2F38yZM4d+++03EBGqVauGQ4cOwdHRMdd8fX19KSAgAAYGBrh//z7q1q37xdqU53ny8vLC7t27wXEcjhw5olEFVJ7n6cKFC1izZg327dunQBDWvn17jBs3Dl27dlWICH716hVVq1YNgGZJzDwSI+Hk5ITr16+rdP9KFz169Ijq1ZNqc2i6ojY2NoiMjOQA4Pr16+Tv74+dO3ciIyODXefi4gJfX1/069cPBgYGGn9J7969Sy4uLkhLS4OTkxPOnz8PQ0PDL7ZxCFi9ejUJp69PnjyJjh075npPcXFx1KdPH5w9exYA0LFjR+zatQumpqZceno6DR8+HNu3bwcgJco6dOgQqlevnmt+//33HzVr1gwSiQQzZszA/Pnzv3h7JiUlkbOzM8LDw2FqaoqbN28Wi2RwTEwMrVu3Dhs2bMDbt2/Z59bW1hg7dixGjBgBMzMzbu/evYzMX9PtWFdXF4mJiSodl1G64K+//qIBAwZAVwc4aqR5Pt61a9ciKCgI165dY98ZGhri+++/h5+fX569prqRkJBAjo6OePr0KSpXroybN29qfDRVXMjOzqZmzZrh7t27sLOzw507d/J04JmZmTR27Fhs3rwZAFC/fn1s2bIFEyZMYIoKvXr1QnBwcL4vWsuWLenChQuwsrJCeHh4sZ7j0iQePnxITk5OSE5OhoODAy5dulRs95aRkUG7d+/GmjVrlNrOgAEDIBKJsHHjRthZAasSNd+Or169Cmdn53zvXUm1QZjGWJsDSFVz7XKAj48P+3fNmjXh4+PDvPSWLVs0XwEZJBIJdevWDU+fPoWuri527dpVapwNAOjp6XH//vsvtW7dGg8fPsSqVavyvN7AwIATJIsnT56M8PBwuLq6gud5AMD06dMxf/58xv+TG7Zt20aDBg0CACxfvrzUOBsAsLOz4/bt20eenp64c+cOxowZA57nKT+bqAPyo+6rV6/SmjVr2OxA6CQAoFZVAIk55aBevHr1SqXrlAi4srKyAACG+uqtUF7Q19eHl5cXzp07h6lTp3JmZmbF/lLOmTMHx44dAwAsWbIEbdu2LTUNQ0Dr1q25AQMGAJCy6sXExOS52CcSibhJkyZxM2fOBMdxzNmMHDkSCxcu5PJrWElJSTR58mQAgLu7O/r27VvqbOrp6ckJjI/btm1DYGBgsdfB2dmZCw4O5kJCQlC/fn2F7zSpGgIA+nrSv/LLIHlByeEYGkr1adMy1Vep/JCVlYWdO3fCxsYGvXv3pjNnzhTridoDBw7QvHnzAADe3t746aefSl3DELBkyRIYGRkhJSUFU6ZMyff6ZcuW0fz580FEEImkr8umTZswbdq0fLeE58yZgzdv3kBPTw+rV69Wzw2UQMybNw/u7u4ApBzTxcmwmJKSQoGBgdSgQQPq27cvwsPDFb5fbqs5ilsAyMqW/i1XrpxK1ys5nNq1awPQrOJATjA0NIREIsHevXvRtm1bNGrUCIGBgRqJsZHHw4cPafDgwSAiNG7cGJs2bdJkcZ8dlpaW3OzZswEAISEhkGfYk0dWVhaNHDmSJk2aBJ7n0aBBA1y6dAnNmzcHACxatAh9+vRBbqeHw8LCSHAy48ePR4MGDUqtE9fV1eW2b98OKysriMVi9OnTB69fv9boe/vkyROaMGECWVpaYuzYsXjwQMqqX758eQBgncPTl5qsxUcIRP75QcnhODo6AgCoGHy0ra0t7OzsAAAGBgaYNWsWhB2ysLAwjB07FpaWlhg/fjw9fPhQ7TVKSkqiXr16ISkpCRUqVMD+/ftL1RpDbhg/fjyzu5+fHz49Rf3+/Xvy8PBgztfDwwOXLl2Ci4sLd/bsWUY2vn//frRq1QrR0dFKz2b8+PEQi8WoWrUqBAdXmlG5cmVu79690NfXx+vXr9GvXz+o+xgMz/N09OhR6tSpE9na2mLVqlVITEyEjo4OPD09MWLECCQnJwMAhg4dCgB4qtrSSpFgYGDAuKDzg5LDsba2hrm5udorJY/xxtJhnqurKw4cOIDy5csjMTERBw4cwI0bNxAaGooePXpAJBIhKSkJq1evhp2dHTp06EAHDx5Uyzkpnudp6NChCA8Ph0gkQkhISLFsa5YEGBgYcGvWrAEA3Lt3D2vXrmXfPXr0iFxcXHDmzBkAUod09OhRmJqacgBQtmxZLiQkBHPmzAEA3L59G82bN4c8j++uXbvo1KlTAIClS5fC2Nj4q7Crk5MTFxAQAAA4f/48pk6dqpZ8P3z4QH/88QfZ2tqiS5cuTBPNzMwM06dPR1RUFEaNGoWgoCAAQN++fbFkyRI2ytEUhOla8+bNixayMnXqVOkBsnKajTQ+e/YsAdI1FOEzLy8vtn7z7NkzmjZtGjtEKiRra2tatGhRkU6CL1iwgOU3b968LzrytbAQzsuZmJhQbGwsnTp1ioXT6+rqUkBAQJ522b59O+PyLVOmDO3evZtSU1OpRo0aBNlh0OK4j5IG4TQ8ANq+fXuhbRAWFkY+Pj5kZGSk8P43bdqUgoKCKD09nYiIoqKiGPdQgwYN2DKEjPqD7Kw02463bNlStOccFRXFjhOou5JOdh+P4csvDMuz0clY/BnS09Ppzz//JCcnJwXDGxgY0NChQwvMkn/ixAl2Yrlnz56fnfLxc+H58+eMi6dFixbs5L2JiYnKpFhXrlwhc3Nz9ky+/fZbdjTiaxWLS09PZ4dmy5YtS/fu3VPZDmKxmPbv30/t2rVTeNf19PTI29tb6Uxfeno6NWnShJ1rkl96OH36tMbPUpmZmeV4KLjAGDVqlPTFEWnmlOmnTHNisZhRJejo6JDMWEq4evUqDR48mB25F5KzszNt27Yt3xPIkZGRrDews7Mr+sGzLxyyA50s1a5du0A0nIDUcX1K/SkjAPtq8fz5c3Z2rG7duvkeuIyLi6NFixaRtbW1gh0tLCxozpw5lNsitLx6yN69exWu4Xme2rdvL3VGZTXTjj9lciw0EhMTGTVD1UrqqaxIxhiWkxwIID3gJ9AwmpmZ5UnO9PbtW1qwYAEbvgupcuXK9Msvv+RI8pWWlkbffPMN6w2Ki/K0pCIpKUmBD8fIyIhiY2MLZZOkpCQFErTmzZsXOq/Sgn/++YeNpLt3755jGMHt27dp+PDhSnS4rq6uFBISkif/kuxQMQEg2TKIEp4/f85IvtQ1tRJ4rb799lv1npb/999/2WngamZFq6zgbOrVq5cn+fidO3cY6bSjo2O+w7Xs7Gzav38/8+RCyom2ccCAAQQZjYKmuHwLCp7nKS4ujsLCwuju3bsUHR1dLNKxz549y5Fbef369YUqW17LSUg1a9Ys0HSisJBIJPT69Wu6d+8e3b9/n968efNZ9bfksWjRImYPYa0wOzubduzYoURmbmhoSEOHDlWJM/jy5ctslN++ffs8N1J27drFHF9RyfQEZ1OtWjWKiopSv41PnjzJFgYLM73q4vLRoLa2tiox38sW2ggADRs2TOU1lgcPHpCfn5/SIlv9+vUVZFJ++eWXz/oyZmRk0LZt26hHjx5K1KiQvXgtW7akuXPnFlgpQBVcunSJlSsSiWjx4sUCDSlVrFixQGoUgHQdwcbGho1sNm7cyNaDypcvT0ePHlX7PSQkJNAff/xB7u7uSjSdAMjU1JQ8PDzI39//s06beZ4XeJuJ4zgaNGgQVatWTaGuNWrUoAULFqi8CRIbG8sEDq2srFT6XXBwMHM6BnpF4yavVq0aPX78WHM2/ffff9n0CgCZGqlWYXk9JXd39wI1np9++on9NjAwsEA3lxttI2QPKCee3eJAZmYmzZ8/X4HAPL+kq6tL3t7eauOB/uuvv1gHUq5cOdq/fz8BQEREBPu8oOsvv/32G3NewgL+mTNn2FqZSCSilStXqmVxPj4+nnx9fZWkV/JK5cuXp59++umzOZ5Tp04pkccBoDZt2uQqJZ0bxGIxtWnTRuo4DAwKtGFy6NAhhXdPVflk+Xbs6upKT58+1bwdExMTaeTIkcxLyiczE5CVORRkYYRkYmJCAQEBBR7iZmdnM8Y9PT09Kky4OM/ztHPnTiUZVsiGofv37y+W6Qsgpb0Q1o+E1LZJ3g9cXhvIxMSEgoKCCt1oeZ5X0KWqXr063b59WyGvWbNmsZ5YVRmcZ8+esfWHH374QeE3jx8/JltbW1bmmDFjisQJffz4cYXRga5O3vbr1gKMJAqyKV5OEsmaQEZGRo47q4B0fbKwUivyJPUyBsUC4e3bt+Tt7a1AageAOA5U2TT3dmxkZESLFy9WG1e4yoiKiqKff/5ZabH20+To6EirVq0q0tGEt2/fsnKqVq1a4OlFZmamAvH1yJEjlUYXwnA2J8JvdeHs2bMKPXJBh7JGZT7Wd+rUqQV2OmlpadS3b1+Wh5OTU462TE1NZSNZV1dXlTqJXr16SXvLXKZi8fHxCutr7du3LxQX8Lp161R2NHmtIYpEIgoODtbYs46OjqZffvlF6T2zsbGhwYMHs/8PHTq0wM9RpmFPAEgW61NoPHnyhH766SeFkIackr29Pa1evbpAumgaAc/z9PTpU9q/fz8FBgbSihUraNOmTXTixAm1SLMIuH79OhuhFFSITNbjEgAKCQkh4OP6ieCIhKSvr0+DBg1Su97OuXPnmLMxMyn8gl2rxh/rOm3aNJXr+OrVK4Vetm/fvnlqXcl6lcGqAAAgAElEQVS2VgnIP6BLxntMAPIMEszKyqLRo0eza21tbQu0BiBbyCagaHJFtat9dDp//fWX2p/zp9K5HMeRh4cHHT58mDlv+RGKzImqhLCwMLY26eTkpDYCeqEd79u3jwICAhTa8fv37z+vk/lckNeFkvEt5wt5iRSZKoESrl+/TkOHDlWacgkKnUUNaHr79i3r6dTBD/1d8491/DTmIifcvn1bQaFy5syZ+faqPM9Thw4dpHWuUiXX+JHMzEw2XWrSpEm+oyGe52nlypVsSl6hQgWVpjfXr19npOUOtYtuQzsrqS0MDAwKHG/0KVJTU2nDhg1KMUjGxsY0btw4evTokVL+ny4VyEju80RiYiKTTM4vXEQLNUFe+TK/nvfKlStsy7BNmzb5rtO8e/cux6ArQYO8sFKswjSmsLsCOSUhUrty5cp5TgMPHDhA5cqVY42rINOI8PBw1lPn5qyF7V6O4wq0vnb06FG2q6Srq5unXFBGRgY1aNCAAFCNKuqzYWXTjx1LYdbwIiMjadKkSUqqCnZ2dirtisXGxrKOwNLSMs94JZ7nSZi26ujoUGhoqNbZFAcyMzPJ1dWVNaDcFt3evHnDtgyrV69eoOAzsVhMBw8eZD28kEQiEfXo0YNCQ0NVnnfLGiGhEGs2+SUDvbxHbosXL2YjiSpVqhRK4mby5MnsJf80liYmJoYN7wcNGlTgvO/du6fg3CdNmpTjYuSaNWs0ZkMh34LINp88eZK6deumsHEiEomoe/fuBXYEqnaKCxcuZGXJ/q1FceHly5dMA8nKykqph8/OzqbWrVszp1QUPfGHDx/S+PHjlbYz69Wrp9Ii2vfff08AqI6l5s6xmJiYKCzKZ2Zmknyou729faFHZ0lJSWxHqE2bNgqOVrg3Y2PjXEPu80NsbCy1aNGC1bVbt24K98LzPJtGaMJ+7s0+jnLys8OaNWvIzs5O4T2oUKECTZo0iSIjIwv9jskvhMvWdhQQGhrKppOyUY4WxY3z58+z4X67du0Ueobx48ezB1gYZc+ckJycTGvXrlVS+zQyMiIfH58cY3ri4uJYHTXRWE6YfNQE2rx5MwllCs4WkGo/FTXuRLbQTgBox44dBEh33ITPVqxYUaT809PTSYj+BqTSscL6hHw5mrKhkP+tW7eU7uPRo0c5ii82btyYNm7cmOfCu6rgeZ6GDRvG8pbtQgFQPItVr169r/7M32eFvDi70DPI1igIgLAjolbwPE9nzpyhPn36sF5HSG3btqU9e/Yw5ycf5q+pxtLmG7ApTXh4ODuDBoB+/PFHtYT28zzPnJilpSUlJCSQvb09AdLT/uqIYeJ5Xgj5JwBkbm5OV65cEQTm1Lp282kSNLIFxymRSOjw4cPUsWNHhTgVXV1d6tu3L+XGjlgUpKWlUdOmTQmQBmKGhYVRRkYGO21uZGRU5MXtkoQvkhhJ1jPgzz//BAAsXrwYc+bMQXp6OlxcXHDu3DmNalhFR0fT+vXrlbSBqlevjjFjxiAuLg4rV66EbQ1gTZJmJTqqV6+OlJQUfPjwAbq6uggICMDo0aPVdu937tyhpk2bQiKRoH379hCItU6fPo127dqprZzdu3fT4MGDkZ6eDkNDQ9jZ2eG///7TqKbSSrtIHL8KeHp6ws3NDYGBgXj69Cn7vnLlyhg1ahTGjBmDGjVqaOx9ioqKombNmiE+Ph62trZwdXVl7/bu3btLDfl8cnIyfbE3kpaWRi1btsStW7fAcRyICObm5rh16xYsLS2LTRto79698Pf3x+XLl9nnIpEIPM+jWwvAL0zzmkAAUKZMGXh7e8PGRv3lHT16VOH+GjVqBC8vL7WX8/LlSwQHBzOaTECzIm6A1IbC8xLg5OSEcePGoV+/fsUmgnjixAn67rvvQHLcvpMmTcKyZcu+2DaaE7iUlBQyMjL6Im8qMjKS6tWrh+zsbHAch6NHj6Jz586f5V6uXr1KU6ZMwfnz59nLWxyNpbSjuGzIcRycnZ2xePFifPvtt5/lHfLx8SGB7rV27dp49OiRgnxvaYDul+psAGDDhg3IzpbqVBAR/P39IZFISEdHp9juKSYmhtavX48ePXrgzZtilrqQg6mpKapWrQqOU/+tp6enIyoqiv2/Ro0aTB1A3YiNjcX79+81kndeICJcuXIFvXr1wpQpU2js2LGoWbNmsb1H7969o2bNmrH/R0VFManl0oQv1tns2bOH+vTpA0Cqb33r1i0AwK+//oq5c+dq/L7Onj1L/v7+OHDgAMRiMfu8Xbt2KFOmDI4ePQrn+sDcV5qdUhkYGCAzUyoi1qpVK+zbtw+VK1dW2/1LJBJycnLCrVu3YGhoiIyMDFhbWyM8PBxly5ZVWzkpKSk0YMAAHDx4EABgbGyMpKSkYhnhNG/eHJUqVcLx48fZ5yKRCN27d4efnx/atWuXr8JoUSAWi8nDwwOnTp2Cvr4+zM3NER0dDTMzM9y8eRPW1tZfbDv9FJqlddcQHjx4QIIMRpMmTXD+/Hn069cPgFRRUrZLpHakpKTQ2rVryd7entq0aYM9e/ZALBajfPny8PX1xYMHD3D69GnO09MTAPBfhCZqoYi2bdti/PjxAKRKAc7OzlDnrsaGDRuYM1+6dCk4jsPz58+xePFidRWBFy9eUMuWLZmzGTBgAASF0Onmmps2+hpJ83Z3d8fx48e5x48fY8KECTA2NgbP8zhw4ADc3d1hb2+vUY20GTNmsMX4VatW4dixYyhbtizi4uLQu3dvqIUzuATgi+QOT0xMZGd4KlWqxALbkpOT2ZatsbGxWnWsHj16ROPHjycTExOF7XA7Oztas2aNUoyEjLpUo9viwpaujJMYa9euZdv1JiYmdOLEiSLff1xcHOO06dGjBwGAcAjTwMBALbwoV69eZcGcHMcxVjwhBkikZk7tnOJwjhw5onAfycnJTM0Scs/b2NiYJkyYoFbyKfnDsrKgTQCALO6JgKKfDNeikOB5nrp3707I5VzJkydPmFOoX79+kYKlJBIJHTx4UCkmQ0dHh3r27En//PNPrnnzPE/NmjUjAPRdc81FGnMcRxEREaweoaGh7P51dHTylXnJDwKRvqGhIaOTlHdCsmdRaOzcuZNx6QgyM8J3SUlJ7MyVJh1OlSpVcj15zfM8nTp1inr27KnEA9WpUyc6duxYkeKdwsPD2T02bdpU6bDwjz/+yMorDPeNFkXE3Llz2QOQHR5UwpEjR5iD6N27d4E5R+Li4mjx4sVUs2ZNhRescuXKNH36dJVP6gYFBWlslFPH8mM08aflfhoE6OfnV6gAvRs3brBGNnv2bIXfy5N3F5Y+9LfffmPPqWrVqjky140bN44A1RkmC5IEcjMZKVm+iIqKoilTpjBnK6Q6derQH3/8ka8qw6dITk5mjJQVK1bMkR84KyuLBV7q6+sX6aiOFgXE0aNHWQOQ8RPnCoHyEnk4pk9x48YNGjp0KCONF1Lz5s1p69atBeYfSU9PZw1f3eepIBvdXLhwIcc6fXrMwcPDo0ANgud5cnFxIQBUq1YtpZ5XLBYzLaQ6deoUyDbp6enUv39/VrcmTZpQTlLBgLSRC1xCXVzUZ8NvHaRlm5qaFpjULS0tjTZv3qzE3liuXDkaM2YMhYWFqZSfwLEtEonynP6+fv2anWmrUaOGWrmmtMgFT548IVNTU4IspD6/xTuJRMKmXiKRKFdRt8zMzBzJuAwNDWnIkCFF7lHOnz/PevGuruppMEIdZcPtXJGZmUnDhw9n1zdo0EDlNRd5/iGB8/hTyJ+Gl6mY5os3b94wRwZIDySmpKTk+Vv5YyzqdNgAaOvWrYV+vjzP0/nz58nLy0uBdAuQnvHbv39/rnScS5cuZdeqovp68eJF0tPTI0DKDV7sNJ9fE1JSUthisImJicoLdh8+fKC6deuyIav8qV6BBvJTxQRra2tauHChWnsRgScYAHUuYi8t5NOkSROVDg/yPE9Lly5lTs/MzIzOnz+f5+8+fPjA7PLdd9/lee2QIUMIkKpL5kfyfvfuXQVKClWpUiUSCVOUgBqcjpCPt7e32hRXY2JiaNasWUrvk5WVFS1atEiBevX06dNscb979+4q10He8RaE8bFUIDs7m0JDQ2nu3Lnk6elJLi4u1KRJE2rdujUNGjSIVq9erTaZVy8vLzaFOHToUIHyvH//PiOh+uabb+j48ePk6empcPiS4zhyd3enAwcOaETLiOd5klegqF654I2mo9PHl/ibb74psIzLwYMHmR309fXz5IARTtzr6+vn69zfvHnDTlPLyMZyxOHDh9niqL6+foG1qNPT0wXnRwCoqW3Bbdiw5kcb9u7du0hk7rkhN/paQ0NDGj58OB0/fpwxQKqixikPnucF7iEClJVrC4PMzEw6efIkzZ8/n7XjZs2akZubGw0bNowCAgLo9u3bn08KOy4ujubPn69AW5lXcnZ2puDg4EKfKl62bBnL69OFS1Wxbdu2HOsm0ECqc/s8NwgnouWH3t/UKbhEh4eHR4GdjYDbt28rEN9PmzZNycHevXuXOWNVe9GVK1eyPHPauVu+fDlbezMzM6N///23UPVPT08nYUQlpA6O+dtQWK8Rko+Pj0aczae4du0aDRo0SEmSGpCGFHyqmKEKUlNTycHBgYCiKce+fv2aZs2alS+BupCaNm1KmzdvLhCfeJGxd+9eZcWDHKgD3Jspy0w0b968wEfsT506xV7+rl27FtjLPnz4kPz8/JT4TCwsLEiTQVx54ebNm0r8t4BUnsOhNqiZLaimhVSyQ/57Y2Nj2rBhQ5F7mtevX1Pz5s1Zvp6engprKMJCc/Xq1fNdWxGQnZ3Nprz169dnjTkrK4vkSezr16+vlridgwcPUtWqVZVsWL2ydOTTpK5UJfbT762srHJdy9MkYmNjad68eWyEKaSqVavSb7/9VmACs6dPnzJq04KGfvA8T//73/+U4slyGnW3+Ua5HTdq1Ehl+aBCQywWK7w4+gXg523XVNGrq8qrK08+VKdOHZWHnmKxmPbv30/u7u5KfCbC/FpHR0cjvCaqQiKR0PHjx6lz5845anzJJyGwUJ0SHWlpadSvXz+F3ismJkZQMSDgI9mWqpCRoRMAWr58OcXHxzOicADUsWPHAm8b54WMjAzaunWrgvPMLbm5udGOHTuKt3f+BPKL8AL9rZD09PRowIABdPnyZZU7lGPHjrH3u0+fPir9Lj09nXEjA6Cyhqq3Y3nyfh0dHVq9erVmbCkWixWGsU52hVu0E0irOY4j2RQnT8MIQXPlypVTSSXz3bt3tHDhQiUS9CpVqtCMGTMoOjqa4uLiWGxNlSpVKCYm5rO9gAKSkpLo1KlTtHr1apo5cyZNmzaNlixZQrt37851q1gd4HlemKKyUZ8wepU5igJDoB0tV64c1apVi+Xt6+ur0V2Vt2/f0qFDh2jFihU0ffp0+uWXX+iPP/6go0ePlgiZkxs3brBQi9atW1N2djb9999/NHLkSBb0KCRHR0f6888/VQozkA/9kO165YpP18DaNy1cO65e+WNdly9frn7bTpkyhRVQ1N0BQZ6D47g8o3TlOXnlKRdzwrVr12jw4MFKMi8uLi4UHBys1KvdunWLPXxnZ2e1aft8qQgJCVGwnY6OTqFlkKOjoxVimHR0dEi2s/LVIi4ujnWC1apVozdv3ijY4/3797R06dIcg0yFjjK3vCUSiRD4SSKRiE6fPp3jtTzPk7DxAjW0Y+f6H+upVkHBCxcusGFbUSspJCFC1srKKsdpgiwUnwCQTDVACblJqBoaGtKwYcPynWPKLyLLQve/auzcuVPBjvPnzy/UWtGGDRsUdv800gN+QZBIJEz9Q09PL0/lDEEtxN3dXeFZ6OjoUJ8+fejcuXM5PpP4+HiysbFhTionByXPS62udixIFZmYmKhnJC4Wixljfu1q6o2SFXZdZGHrDBcuXMgzuOn58+c0bdo0pYXrWrVq0ZIlSwq0eyOEzAPaMypCo5DfQRs0aJDKoz+JRELyZ36EZ+jg4FBsuu0lEb/88guzSUFGeg8ePCBfX18mwyOkxo0b04YNGyg1NVUhrzt37rCp2aej9vj4eLbA3LKRetuxID8tHOotEmTxLmr1ivIJkAaLJSQkECCVoxV2HqytrRWcR2hoKPXs2VMpdsbDw4MOHTpUqNiZrKwsatWqFQHSuBBV1A9LI/bs2cNsun79eoUAuxYtWuSr6ZWUlKTwm1atWpG8/vXXOqU6ePAgmx0URrcLkLIirF69mjEjCCkneRp5AYExY8awzxcvXiztBHQ1144BFJ3kvWPHjgSAHOtppqK6OtKK/vHHH5SVlUVubm5sWnTz5k0StICEw21CMjExURs9gPwZFUtLS6X5dWlHWloaWVlZESDdyeF5nsRiMf3888/M3jVr1sx1TefZs2fUqFEjdu2QIUPYmpmwG2JqapqnOmhpxOPHj9m2s4ODQ5HlZCQSCf3999/UpUsXhZ1XjuOoW7dudPLkSeJ5nuRH7UFBQcTzPFsb0kQbPmFiQ1UqSMuTBYuqBCUmsZSUFDIxMYFEItEo25pHYiTatm2L+vXrIzAwEACwcOFCREdHY9u2bQpE2o0aNYKvry8GDhwIdVKiXr58mVq3bo3s7Gy0bt0a//zzD/T19UsNu1pemDlzJs2bNw8ikQg3b95EkyZN2H1v2LCBxo4dy8jFdu7cqcAVfenSJerVqxdiY2PBcRwWLFiA6dOns++joqKofv36yMjIwMiRI7Fp06avwqYpKSnk7OyMsLAwVKhQATdu3EDt2rXVdu8REREUGBiIzZs3IzExkX1er149+Pj4YMeOHbhy5QoMDAywZcsWeHt7A9AsL7RHYiSsrKzw4sULle5T6aIzZ85Q27ZtAWi+ovL0mNWrV0dMTAz7XldXF7169YKfn59GSa3Xr19Po0ePBgBMnDgRK1euLPWNIyIigho2bIjMzEz4+Phg7dq1Svd8+vRp6t27NxISEiASifDHH39g3Lhx2L59O4YPH47MzEyUK1cO27Ztg6enp9Lvf/vtN5o9ezY4jsOVK1fg7Oxc6u3q5eVFO3fuBMdxOHLkCLp06aKRe05JSaHg4GD4+/vj/v377HMjIyPwPI+0tDRUrFgR8fHxMCoD7NXXvHJITEwMqlevnu/9KlGMPnr0CABQQTMc2QoQnA0A5mwsLCwwa9YsPH/+HLt37+Y0zaA/evRobuTIkQCAlStXQhYAV6oxceJEZGZmwszMDPPnz8/xmnbt2nFXr16Fra0teJ7HhAkT4OTkhAEDBiAzMxOWlpY4f/58js4GACZPnoxatWqBiODn5wdNnFMrSVixYgXt3LkTADB79myNORsAMDIy4saMGcPdvXsXZ86cgaenJ0QiEVJSUpCWlgYAiI+PBwA0rKWpWijiyZMnKl2n5HDevXsHALCoqN4K5Qc3NzeEhITgxYsX+P3337ni0pYCAH9/fzRv3hwAMHLkSBTmnMuXgiNHjtCRI0cAAPPnz0fFihVztbOtrS135coVtGnTBgBw8+ZNAFIe6WvXrqFp06a5/rZs2bLcypUrAQDXr19HUFCQ2u6hpOHs2bM0ZcoUAECXLl3w66+/Fku5IpGIa9u2Lbdv3z4uKioK06dPR6VKlRSuMTLUbB10ZB5EXhAyLyg5HEGISwNqI3lXRCSCjo5O8RYqg6GhIbd3715UrlwZ6enp8PT0REmIUlU3MjIyaMKECQAAR0dHCCO7vJCZmYnU1FSFz1JTU1lPmhe6deuGTp06AQCmTZtWKm0aExNDXl5eEIvFqF27NoKDgzWq8JAbdHV1oaurq9SGpjzVrOqF4CfkBfzygpLDETzk2wT1VSovmJubA5AqDnh5ecHa2hpz5swpMBNbUVGjRg1u9+7d0NHRQVRUFLy9vVHaiI6WLl2Kp0+fguM4BAQEID/9rtu3b1Pz5s1x/fp1AECHDh0gEonw+PFjODs74+zZs3naRyQScatWrYK+vj7i4uKKrecvLmRmZlLfvn0RGxuLsmXLYt++fahQoUKxOhuBBKxmzZr4/fff2UijRo0aAIC5NTQrliiWSP+amZmpdL2Sw6lbty4AIC5R6Vq1w9DQEJGRkdi1axdat24NAHj9+jXmzJkDKysreHl50fnz54uNj6NNmzbcsmXLAAAnT57ErFmziqPYYsHz589p4cKFAIBhw4blu4h74MABatmyJaKjo2FgYIBt27YhNDSUO3ToEIyMjBAfH48OHTpg8+bNeT4bW1tbbtKkSQCAtWvXlqrp6o8//sgkkDds2AAHB4dicTbp6em0efNmatKkCbVq1Qo7d+5EdnY2jIyM4Ovri/DwcAg2D3tWHDWSKoWqAiUDffjwgSpUqAAi0vgulZubGy5evMjqcPfuXQoICMC2bdsUhuwODg7w8/ND//79Ua5cOY0+VJ7naeDAgQgJCQEA7N27F7179/7id1h69+5Ne/fuhampKR4/fowqVarkek+LFy+m6dOng+d5VKlSBfv374ebm5vCc+rWrRueP38OQKqBvWjRolxlaVNSUsjOzg4xMTFwc3PD+fPnP8u0Q53YunUrDR48GADg5+cHf39/jd/P8+fPKTAwEJs2bVJQJ7W1tYWvry+GDh0KExMTDpDK7zg7OwPQ/G6zubk5Xr9+rdIzVRrhmJqacm5ubgCABTU1MxzrkS7NV5jfC2jcuDG3fv167uXLl/jjjz/YaOvOnTv44YcfYGlpiZ9++omePHmisV5SJBJxGzduhIODAwBgyJAhUJUYu6QiNDSU9u7dC0AqFJibs8nKyqJhw4bR1KlTwfM87O3tce3aNQVnA0if07Vr1+Dq6goAWLZsGTw9PZEbx5CRkRG3YsUKAMDFixfx119/qfHuih+3b99moRRubm4Q7k1TEKRqbGxssHjxYrx//x4ikQhdunTB33//jYcPH2LChAmc4GwA6RqdhYWFRus1ylDajrt166ZyB5LjRdu3bydNBg15JEZCX18f0dHRMDc3z7WiEomEQkND4e/vj6NHj8otaHP47rvv4Ofnh++++y7ftYjC4OnTp+To6IiEhATY2tri2rVrMDU1/eJ65aysLHJwcEB4eDgaN26MW7du5TgSiYuLo969e+PcuXMAgM6dO2PHjh0wNjbO9Z7T09NpxIgRbDTo4OCAw4cPw8rKSuk3PM+Tu7s7Tp8+DQsLCzx69AjyDeRLQXx8PDk6OiIyMhIWFha4desWqlWrpvb7SElJoa1bt8Lf3x8PHjxgn5uammLYsGHw9fVFnTp18ix31qxZ9Pvvv6OMAXDAUDPtGJDuQjo5ORXeBpmZmYwoyKG2ekOjDfWl4dDyKoOqIDIykiZPnswOownJxsaGli1bphHuk7///puFk/fo0UMjnMeahrxCQG70np9qWU2cOFFlDhue5wX1TwKk3DpXr17N8bdhYWHskKjsCMUXBYlEQp06dWKHXQtLl5oXnjx5QhMnTlRi5bO3t6d169apzMQISDmnhYOd6pTZOWFiQ5WMpfUqLH+SEmTyp2o9i9HUVpqfmZlZvgcDc0NqaipbMIPcAylTpgyNHDmyUFyxeUEmgULAR1ndLwWvXr1i5OUDBgzIse4nT55kEjy6urq0bt26Qt3jrl27GB+OoaFhrqyBAqG8rq6uyhpOJQW//vorexdkXM5qAc/zdOzYMerUqZOSyqunp2euXDeqYM2aNWpvxwKpf5kyZdTLCT5ixAi1Vda14UfnIC/pWljwPE+XLl2i/v37M0oEIbm5uVFISIhaaCV5nmfUjBzH0bFjx76YRiIIzpUvXz7HMIPAwEA24jA1Nc2TGE0VXLt2jemEA6DffvtNaYcxMTGRXdOuXbvPpwhQQBw+fJg5A29vb7XUOTExkVauXMnkjIRUqVIlmjZtmsoqr3lBIpEo8OwUtR13dvlYz1WrVqn32aWnp1Pnzp1ZAYUVcxOIt4D86RALgzdv3tDvv/+uxBdrbm5Ov/76K718+bJIZSYmJpKdnR1rmOpYtJZIJHTlyhVatmwZjRgxgrp27UqdOnWi/v3704wZM+jgwYNFInqXDfdztLlYLFY4XVynTh219VQvXrxQUKX09vZWUu6UJ0HLj9UxL2RkZNDJkydp7ty5NHjwYOrcuTN16dKFhgwZQvPmzaPTp0+rRaEhIiKCjQIbNWqkxElTUISFhZGPj48S503Tpk0pKChIyV5FRUJCggJhXWGdTSObj3WdNGmSZjqL9PR06tatGyuooDrPggIBx3EaZ4HLysqiPXv2UJs2bRQepK6uLvXt2zdX5jRV8PDhQzY9adSoUYHm0vJ4//49LViwQMk55pQMDQ1p6NChdPfu3QKVJRaLmTqEvJICIHWe8vy2bdq0Ufv6V3JyMvXs2ZOV4eLiokD/wfM8tWzZkoCCKUQIiIqKookTJyopcuSUKlSoQFOmTCk0M11qaiqj4TAxMSl0ZyMQ/Ldr106hfnp6euTt7U0yJVON4cOHD4wGBgCZVyhYOxYoZQDQ9OnTNTsylUgk5O/vz3SeAZCOCNS8fs6Vrltd8aHXrl07X8VHdePevXs0ZswYJXmORo0a0bp16wo1ejhw4ADLx8vLq8BG37lzJ1WsWFGhPmYmIPdmina0raHccCZMmKAyt4qMVZ8AUGhoKPtNZGQkNWzYkH03YsQIjWk0SSQSmjp1KivLyspKQRzx9u3bTLVCxo6XL8RiMS1cuFBpCm1lrrgo2skZZPmJVEyZMmVo1apVBV74F6alhRFiBKQdzOLFi5UI/i0sLGj27NnFGlGflZVF8+bNU7Cfrk7u4giftuPq1avT8ePHi68dP336NEf6w9xSzZo1afHixYUeDagDHz58oFWrVikxp5mYmNDEiRMLTOY1c+ZMlodMqC9fZGZmKqgmFkRqR15jqV69evnW9+3bt2z437t3b3bthQsXGD2rSCTSyNQ2JwQFBbEX3MjIiA4fPid3WV4AAAmUSURBVMzK9fX1ldpDBZXPd+/eUYsWLZgtCjLSLl/2ow3bt2+vsmSNbI2CAJDsuauM27dv0/Dhw5WUGVxdXemvv/4qFjG+3PDgwYMcVSNyS9WrV6d58+apVeqnQEhMTKStW7fSmDFjyMXFhaytrcnCwoLq1q1L7dq1o2nTptHx48dLlOi6RCKhkydPUvfu3RV2AgCpouXhw4dVqq9YLGZboyKRiE6dOpXnb7KyshT0gFwbFm4OLfze0tKSIiIici1z+PDhBEgpXIVFx61btzJ1BiMjo0L11EXBuXPnqFKlSmyksHz5cuJ5nt6/f8/0xzp16pTriDEuLk5BQLAw9uvW4uPzdnFxyVfrS55j+7vvvlNpZJSdnU07duxg00UhGRgY0JAhQ+jGjRslpj0A0piioKAg8vX1JRcXF7KysiILCwuqVasWeXh40IwZM+jIkSNfNTe1WhAVFUVTp05Vmt7UrFlTJUL2+Ph4FrdiZmaW527CsGHDitRQ5JOB3sfpSU7rLleuXGHOdN68ecTzPE2fPj3XaU1xIiIigi28A6AffviBMjMzBRJ7AkAHDx5UqltmZiY5OjqqzYZCPm3atMm1g5Hn2K5Vq1a+a1xv3ryhuXPnMspaIdWoUYMWLFhA79690zZYLaS8vkFBQUx4T0iC+HxekjN3795la1qOjo457izIr/kUtaEISU9Xmt/AgQMVypNIJKxh1qlTh+Lj44UpFQFSRv/PzduckJDApFMAadDYu3fv2A5KrVq1lNap5GNf1GVDIb+cNjGysrLYCKVMmTJ069atXG125coVGjBggJJ+eJs2bWjPnj0laoSvRQkCz/N05coVGjhwoNLL4+rqSsHBwTnKpmzfvp1dN2zYMIUpQWJiIhOLb2ar3ihPocyjR4+y8tavX88+37Ztm4IT/f7779W+1VpYZGdn09ixY1nd6tatS3v27GEjM5miJADpwr8QJ6RO+wk2NDQ0VFA/AAAZITgBoC1btijZLDddtLJly9KoUaMKvKOoxVeO2NhYmj9/PlWvXl3hhapSpQrNnDlTaXtViJwFQIGBgew7IcJTR6T+xvJNHWl53377LQHSnRBhjaRVq1YKW+5z5swpkQ1gzZo1bJeqQoUKLN7L0NCQoqKiCPi4HmVRUf02rFBeah+ZphYARbkVHx8fBbvFxMTQjBkzmEa9kGxsbGj58uVM8kiLvPHFHZ4rLmRnZ9OhQ4fg7++PM2fOsM91dHTQs2dPgdwdEokEHTt2xJkzZ6Cnp4ezZ8/C1dUVDRs2RHh4uMaoAYSDc/fu3UNgYCDWrl0LPT096OrqIj09HYaGhggKCoK3t3eJfcbHjx8nLy8vJCUlQVdXF/r6+khLS0OvXr2wadMmWFpaIiMjQ6M2NDExwcuXL/H06VO4uroiLS0NLi4uOHfuHAwMDLhz587RmjVrcODAAYjFYgDSw8MdO3aEn58fOnfurJHDw6UVWkOpgPv371NgYCC2bt2KlJQU9nnDhg3h6+uLTp06oXXr1oiOjoaFhQVCQkLQrl07AJrjIhkkisTbBGDUqFHYtGkTeJ5n35mbm+PgwYNwcXEp8c83LCyMunbtiqioKIXPJ0+ejKVLl0JXBzhqpFmnHRwcjNmzZ+Pp06cwNzfHxYsXcebMGfj7++POnTvs+vLly2Po0KHw9fWFnZ1dibdtSYTWaAWALBwA/v7+TN0CAIyNjdG5c2fs27cPWVlZqFu3Lp48eQIDPeBQWc2SH1WoUAEJCR/5YBs3bozDhw/D2tr6i3m2b9++JU9PT1y4cIF9ZmJigsTERDjWA+a/0YwN/cpH4kkMUKdOHUREREBHRwd9+vTByZMnFWxqZ2cHPz8/DB48OE+6Di3yh9Z4hQDP83Tq1CkEBATg0KFDCqMLeTSvD/z+SvOaQAK6deuGkJAQlC9f/ot7rhkZGTRq1Chs3bpV4XNNjRAFyNuQ4zjGuSQQXI0bNw7u7u5fPENhSYHWiEXEs2fPaN26ddi4caMC7SNQvI3F2toaderUAVfcchtqxrNnzxAREcH+X5w2BIAKFSpgxIgRGDt2LGxsbL5sY5ZAaA2qJqSnp9OuXbuwZs0a3LhxA0DxN5bSiOKyob29PcaPH48BAwZonDf7a4bWsBqAh4cHnThxolgai0gkgsCvW5qwY8cOJCQkFIsNGzRogAcPHmjbQjFA93NXoDTCzc0NJ06cwOgykVifrtkGY29vn6M2+JeOXr160f79+zVaxpLakcAtwMnJSYE3WAvNQUm1QYuio1mzZgCAZ280V8Z8maKGUFZpg3Bfw/U0N2288UixLC00D63D0QCcnZ2hq6vZweOFe9K/gqRPaUPLli0BAC/jNFdGokzBuLTasCRC63A0ADMzM87T0xOANNZDE+B5afyPl5eXRvL/3GjVqhVsbW01lv8KW+lzcXR0RJMmTTRWjhaK0DocDcHX1xcA8CRG/Xn3zJA2liFDhnyRMTeqQEdHhxs7diwAzezGnZDKpcPX11cbY1OM0BpaQ5CpPeDgwYNqFSL73SoSF+4BFStWRFhYGKpWrVpqn2FaWhp98803ePz4MWyqAWtT1WPDobqReP0eaNKkCa5evQp9ff1Sa8OSBu0IR0MQiUTcunXrULFiRaRnAiP01dNLC2s3/v7+pdrZAEDZsmW5oKAgcByHyFfAnOpFt+HUylJno6enhy1btmidTTFD63A0iKpVq3IhISHQ19dHzDtgpEHhG8zq+pFsauHr64vvv/9eXdUs0XBzc+OWLVsGALgcBsysWngbTjaLxH+yIOaAgAA4ODhonU0xQ2vwYsCRI0eoV69eyM7OBscBfxsXbGowkIvEuw/Sf48ZMwYBAQFfHSXCkiVLaMqUKQCAcobAPoOC2bB7WiQys6X/Xrt2LXx8fL4q+5UUaI1eTLh48SINHjwYT58+BQCVTpKPNIhE9Fvpvw0MDLBw4UJMmDDhq3M2AkJCQsjX15ed5K5oDGzn8rZhX3EkkmTb35UrV8aGDRvQq1evr9J+WnxlSE5OpgkTJjANblVTu3btvjgdbk3h5cuX1KdPHyXljbySjo4ODRgwoNB69lpo8UXj3bt3tGjRInJ2diYdHZ0cG0mtWrXI19c3TxLvrxkRERE0depUatCgQY724ziOGjVqRDNmzKBnz55pbVhCoB1afmakpaVRREQEYmNjIRaLUbFiRdSqVQtVqlTRPhsVkZCQQJGRkXj37h04jkOVKlVgY2MDExMTrQ210EILLbTQQgsttNBCCy200EILLbTQooD4P15Z6vpHuLTDAAAAAElFTkSuQmCC;sketch=0;fontFamily=Times New Roman;" vertex="1" parent="1">
          <mxGeometry x="520" y="347.3" width="138.51" height="63.4" as="geometry" />
        </mxCell>
        <mxCell id="sGhclLiKgmVHKod2IJ2O-14" value="" style="endArrow=classic;html=1;rounded=0;fontFamily=Times New Roman;" edge="1" parent="1" source="sGhclLiKgmVHKod2IJ2O-6" target="sGhclLiKgmVHKod2IJ2O-12">
          <mxGeometry width="50" height="50" relative="1" as="geometry">
            <mxPoint x="400" y="320" as="sourcePoint" />
            <mxPoint x="450" y="270" as="targetPoint" />
          </mxGeometry>
        </mxCell>
        <mxCell id="sGhclLiKgmVHKod2IJ2O-29" style="edgeStyle=orthogonalEdgeStyle;rounded=0;orthogonalLoop=1;jettySize=auto;html=1;entryX=0;entryY=0.5;entryDx=0;entryDy=0;fontFamily=Times New Roman;" edge="1" parent="1" source="sGhclLiKgmVHKod2IJ2O-18" target="sGhclLiKgmVHKod2IJ2O-13">
          <mxGeometry relative="1" as="geometry" />
        </mxCell>
        <mxCell id="sGhclLiKgmVHKod2IJ2O-18" value="Confidence Scores" style="sketch=0;outlineConnect=0;fontColor=#232F3E;gradientColor=none;fillColor=#232F3D;strokeColor=none;dashed=0;verticalLabelPosition=bottom;verticalAlign=top;align=center;html=1;fontSize=12;fontStyle=0;aspect=fixed;pointerEvents=1;shape=mxgraph.aws4.documents;fontFamily=Times New Roman;shadow=0;opacity=50;" vertex="1" parent="1">
          <mxGeometry x="410" y="340" width="64" height="78" as="geometry" />
        </mxCell>
        <mxCell id="sGhclLiKgmVHKod2IJ2O-20" value="" style="shape=image;verticalLabelPosition=bottom;labelBackgroundColor=default;verticalAlign=top;aspect=fixed;imageAspect=0;image=data:image/png,iVBORw0KGgoAAAANSUhEUgAAAEAAAABcCAIAAABRHyRpAAAACXBIWXMAAA7EAAAOxAGVKw4bAAATMElEQVR4nO1c2XPaaLbXLrQgtACyAWNjDNhx3J04y2Sme7qqq+dhav7fqXmZ6qqpdCaVzFTaGTsxdoyDbTAGxCoB2nUfzrQujd0xSVzJ7bp9HhxKoE/nfMtZfuenoEEQIL9e8X3sc6vwsfKbAZ9bCPgn+LnARRRF4S+GYfD5k8mV+oRaTav0XwN83zcM4+Dg4Pj42DRNuAdFURzHU6lUsVhMJpM0TX9KG0ajUbVarVQq/X4f9AmCgCCIRCJRKpUymQxFUT8zYDAYPHv27OnTpxiGsSyL4ziKoiRJlkqlRCKhKMqn1B5FUcuyzs/Pd3d3G42G7/tBEEwmk8lkkk6ncRxXVXXWANM0m81mv99fW1tbWlqKRCIoihIEkclkotEohmHhUgZBEO6uKx9/2TWjKHp5J1z+fbjyCIKQJKkoSj6flyTJ933f9y8uLg4PD0FJz/PgFmJ6UAzDMpnMd9999+DBg2g0CrsNx3GCIDAM8zzPcRzbtj3Pw3GcJEmKomChrjTD933bth3HwTCMIAi44nkeQRBwY6j39MgYhlEURVEUz/NbW1sbGxu+7yMI4rruwcHB3/72t/Pz8+mn/MwAmHKaplmWjUaj0zPk+/5oNGo0Go1GYzQa0TSdSCRSqZQkSSRJXp5vBEEcx6nVao1GgyCIWCxGEMR4PJ5MJqIowqqG2huGcXFx0Wg0dF2PRCKLi4uZTEYQBJqmw4PnOA7DMCRJzswXgcwhvu83m83d3d16va6qaiaT6fV6r1+/rtVqGxsbcJ4ur4NlWXt7e3/961/Pzs5IkmQYhuf5jY2Nb775BtYWPEyz2Xz58mWn0xFFUZIkTdOePn1aKBS2t7cFQZjZaZc351wGGIZRLpf39vZkWc7lcqlUShTF4XBYq9VIkhQEIR6PX2k2juOCICSTSYqiZFleWVnZ3NzMZrMwr0EQDIfD//znP2/evMlkMvl8nqbp09PT3d1dDMPW19dhG79bt+sN8H1f07RyuXxxcbGysrKwsCAIAkEQoigeHBwcHR0tLy8rinLlk0RRvHfvHsuykiTxPC9JkqIoHMcRBAFu48WLF//4xz9isVgmk0mn0wiCpNPpYrG4uLhI0/Q8wed6A1zXbTabZ2dnlmVFo1GGYcC9MgzjOE69Xm+1Wvl8HsNmgzqKogzDLC0tLS0tJZNJ8AQgCIJ4ntftdp89e1Yul7/99ltJlOBYr66uxuNxURR5nkemPN6HG2BZVqvVarfbDMNQFAUhEMMwkiR932+32+1227IsgiAuPwmmWdd1kiRhB0ciETidtm3X6/VyuazrOsMwtmNrmub7PkEQ6XSa53kcx6/VbS4DPM8bj8emacLSh1rChI1GI13XHce58l7HcXq9nuM4/X7ftu3hcCgIQqFQWFhYsG272Wy2223XdQ3DqNfrkUhkNBqNx2NVVUulkizL4HzfLdcnc77vO44TBo5pCYLAtm3LssBVzwiO4xRFcRwXj8dzuVyxWERRFIJ9q9WybdswjNFoZBiGZVmKohSLxXw+PxgMvv/++52dnfF4fK1uyJxeKJTLm+TKeggu0jSdy+XS6TTDMCzLep63uLj44sWLnZ2deDy+srLiui7ENUEQFEURRZEgCEmS/v3vf798+XJ1dRUc/8cagGEYhNsr3TCO4+8IxjRNMwxD0zRBEK7rxmIxFEVPTk7evHkjiiKMDCkDz/MURdE0HY1GLct6+/YtxJyPMiDMTGiahlPoeV5oA2wbUPHygfM8r1ar1Wo1cJGiKILvwjBM13VN00zTjEQikHGFIRaSjiAIer1ep9MBv/fhBoBAqIpGo3AYwswWDq4gCLFYDMyDlAu8pOu6+/v7P/zwQz6fj0Qi014FfonjuCRJsVjMMIyZtYXVhgz0WvXedYgh4FMUlUwm1aSKYdhkMnFdF5bCsiwURZPJZCKRoCjK87zBYNBqtcDtQH6uadpkMoG1CoLAsizHcTiOgx2/sLCwuLhIEMRkMrFtG5SGeRFFUZbleSqQ61eAIIhUKlUoFoyRoWnaYDDgOA68O0VR6XR6cXERwzBN03744YdyuZzNZv/whz+kUqlCoYCi6MrKSjKZxHF8Mpk0Gg3TNEul0p07d9LptO/7Dx8+NE2z0+kMBoNYLGZZVrfbpShqc3Mzn8+zLHsDBiAIEovFbt++DUrv7e0ZhtFuty8uLsBhS5KEIIjjON1u9/z8nGVZ0zQhM7csazgc7u/vMwzT7/dfvXqlKMqdO3fW1tY4jvM879GjR57ntdvt3d1dTdPG43Gr1SqVSvfv35dleZ5YNpcBFEUtLy9TFNVoNCaTSbVa9X0/m80mEgnwkgiCCILw4MGD5eVlSZJUVSUIQpblIAguLi663W6n03FdN5fLJZPJbDYLymEYlk6nv/rqq2q1ahiGpmkEQWxsbCSTyaWlJRj2BlIJBEFQFGVZdmlpSRKloT6ExIHneUiNYJ4YhllbW1teXiYIAnwL+EeKomKx2GQyQVE0Go2KosgwTBhiaZqGxGE4HDqOQ5Ikz/OCIEQikcvJ1YcbgCAIhmHg9eKJ+HRJGToKHMc5joPPof+lKEpRFEVRwiuXa0uappPJZDKZvIyG3JgB4VMvD33lY+Di/Le8l8YzMu8KfMDo195yI1jTrx6Z+82Azy2/GfC55T0Kmmm4GJ2Sm7rl8i9v3gDbtkejkWmaJElyHBeJRK5NVxzHgZIawzCGYSAMX6lcEASu647HYxRFof6+SQMcx2m329Vqtd/vYxjm+z7LsplMZnFxkWXZKxXyPK/f75+dnTUajX6/PxqNSJLM5/PFYvHKgt00zZOTk6OjI1mWb9++DYjyzRgA0OLOzo6maUtLS+l0utvt1ut1XdcRBMlmszOQJcRgwzBOTk46nQ7P87FYrNPp7O7uHh4edrvdR48eJRKJ6Vt83+90Os+fP3/9+vX29naxWJyz+3i9AQAAArSYSCSy2ezS0lI0GtU07fT0FIDby9Ci7/u1Wu3o6EgQhFQqJcvycDjsdDrff/+967qiKAJAFP5Y1/Xj4+O9vb2zs7NSqXQlzHGlXL9GQRC02+1yuaxpmizL0KqRJEmSJMMwKpWKpmkzswUF58nJyf7+fq/XwzCM4zhVVYvFYjQaPT4+LpfLvV4vrE5t2+52u+12ezweXwkdfJQBjuM0Go3T01PbtnmeB8gSx3Gaph3HOT09vbi4cF135i7f94fDYbVaPT4+hmIAx/FYLMZx3GAwaDQahmFA1Qu1aL/fJ0kyHo/zPP9eOdL1Bti23el0Op0OgiAhjA5tiCAIOp0OQIszVTlBELlc7uHDh4VCQRRFcFZQ9SM/5dXh+N1uF/oGkiTNiSiGMhe0OJlMLMsCZCF8MDSdxuPxeDy+vAIEQWxtba2trUF9QxCEZVmapum6rqrq2tqaJEkwQr/fHw6HUEvApNywAeCefwlahNbQ5TOHomgI+yAI4rpur9erVCq+73/xxRe3bt2KxWJwdlutlu/7kiQBzPFe2iNzHuJ3zMqVAE7YygUoOwgCaJGcnZ2trKw8evRoeXmZpmnTNCuVSrPZjMVikiTN2RCYkRuAFgH4f4eF4/G4Wq0eHh7yPL+9vV0qlaLRKETGZrNJkqQoigDWh8fa8zzf938pp5hWg5i+OpOuTEOLFEWFD4Dfw7aJRCIsy0JYna4hw9+Yplmr1fb39wFE+eKLLyiKchzHMIxarWaaZjQa1XXdNE3ALwzD6PV6YBhgfuFoVxpDTH89nXuF12Egnudhx89Ai9FoFDqQoC7MQrhzbNs+Pz+vVCooij569Gh9fR3DsF6vZ5omtAU6nU632z08PEQQpNvtlsvlRqNxcHAgy7Jt28ViEfDgGaWnr1y/hWiaXlxcTKVS5+fnhmE4jhOJRDzPg/wslUpB09y27Xa7res6NAQYhvE8r9lsvn371nXdfD6fSqVs2+71egAr5XK5u3fvlkql0D3U6/VutzsajQqFwt27dzOZzEyW9d5dytDlJ5PJQqEA2FOv1+M4bjweD4dDmqYzmYyqqhiGtdvtx48fv379enl5+ZtvvsnlchcXF0+ePNnZ2bEsC0IYdHRIktzc3KQoShRF8EUAifb7fQgCkOpeCXpflutXAEVRURS3trYcx+l0Oq9fv7ZtG/rSqqpubGwAtAid8G63K8uy53mu4x4dHT158uTg4MC2bTjosMFKpdL29jZ03ODGbrd7fHy8s7NTr9cnk8nx8fGzZ88gjNwAvI4gCEVRmUzG9/3j42NoWo5GI+jUhxggx3EbGxuQ80iShGIoz/OQObuuG3oFkiRXV1dzuRzHcSEcBBKLxb788stSqcRxXPjttTJvPcCy7OrqaiKR6Pf7pmkqigKdgbCmEQRhe3t7a2sLqBAoit66dQv6SNPjgE8Lpx+uCIKwsbGxuroaBkRgPNwMvI78dBhgxHg8Po0Thr8JC67wCkzkPIMDu+Pa3XKlvAcyd6Xen13+P6ES/6cmPpRf/Qr8ZsDnlt8M+NzyIdgoMhX/57/rHbdMp5nvG2fmNQBK+2632+v1LMsC/oEsyzzP/xIfw/d9y7L6/X632x0Oh67rchyXTCZlWYYmJOg9Ho87nQ4QioDJBrS0GyM8IT/xet++fXt+fo6iKMMwUKkAa0ZRlBnCCkynaZqNRqPZbBqGAek3EJ5u374NaSZk10dHR2dnZ0Bb8Tzv7OwsmUwCbHFjjW7btk9PT3/88UfP87a2tlZWVjRN29/fb7fbCIKwLAv8tmkByOjt27eO48Tj8XQ63el0nj59uru7OxgMaJpeXV1FUbRSqTx//hzDsK2tLVVVB4PBjz/+CGRIlmVvhmoQBIGmaS9fvnzz5g3AroqiADb64sWL/f39ZDJ52QDXdSuVysHBQaFQWFpaUhQFWLyVSuXZs2eyLAuCgOP43//+93K5/Je//CWfz8uyrOt6vV5//PgxwzDpdHqedvf1XiisDE3TjMViMCswQ7Ztn5ycALAzY7PrurVa7Z///Ofz58/r9brrusB6EQRB07RqtdpqtU5PT1+9emUYBmC9gPZJkmTb9vHxMdDSrlXvegMsy2o2m61WKwgCmqZhu8PDwLZmszkDLSIIgmGYqqqFQiGZTIbwFngYYFADeUXTNBzHw6ICqgUURVutFlBbrlVvLt6oruuj0Qg4baEq8EjDMHRdv1y1EARRKpV4nuc4bmFhgSAI4EhPJhNBEFRVZRgGqNRwWMNhofgcjUbgl27AgJCEjlxiDARBYJomYCThdVgKDMMWFhbAQYGfHY/HZ2dno9FodXV1fX1dEATbtqHahI0+jedZljUajS5Drh9iwDR4OBNiAEUDDtfMXSiKkiQJqoOd5+fn1WqV47g7d+7k83nYS5cDHHwAQv48bY7rz8D06FcqOmMV+nNBfuqvwXm9f//+7373u0QiEW6bGSgtDNvvIENOy1zYKEmSQCacNgA+A1fyHRHH8zxN03Z3d09PT9fX13//+98vLi7CCxAkSQL9d3qm4SkkSb572LkMABVxHOd5HtC4aWgRNijHcdFo9JdaooDBQKPp7t27t27dEgTBMAzP82zbBvQq3IRgCZw3lmVFUQyRiw80AISiqEQikUgkBoOBaZqABMKTUBSFr8ClAvkQiO2ANvf7fUBws9nsyspKNBqFo2zbtqIo8XgcMNBpMiSwHOPx+MLCQiQS+SgDYAsSBLGwsLC6ugqdOcMwGIaxLMswDJIkVVVVVRXH8cFgAPtEVdXbt29DXrC3t7e3t+c4TiKRGI1GGIYNBgNo0iQSiUwmc+vWrcPDw06nMx6PWZYFsjhJkrlcLnxP6WNXAMMwWZZLpZKu6/1+/+TkBMdxIOQLgpDP5+Hth8lk8ubNm52dHXgJSlGUk5OTx48fv3r1yvM8lmVhTRzHUVUV0F+e5x8+fBgEQa/Xq9Vqvu/3er12u51MJtfX18PO2scagCAIvPuCIEilUoF2Za/XA8y5WCxCuxcofplMBkIvJLC6rsPrT/AKGJxOURQhfeI47t69exRFVavVWq2m67qu6yiKfvnll+vr6zfMWpRl+d69e9lsFmjZQLJMpVI8z0MYUhTlz3/+85/+9Cdg3aMo+uDBg83NzZnmWggtQnNfEIT79++n02kgMXAc98c//hHSuBvGRlEUjUQiQI4IuxjT71hiGBaimRCkocl35VDTf2mazmazmUxm2v3PX5S9B2sxDPUz12c0Cz/PowT8Bjj8v/Ttu+VjWYsfD9d95Ag/MwA8MbR+LcuCi9ClnJNHe4MCyoRpmOM4kB3NpDM/a/IhCDIcDiuVCk3T0GLAMCwWi6mqCu+OfUoDLMsCHgMwQDzPq1arzWZz5oUjItQeapR+v//kyZNXr16BlyAIYn19/euvvwa6wKc0wDCMvb29f/3rX+HruMPhsNvtQoALN95/dcIwjOf5zc1Ny7J0XQ+TZ0jjPv3+QX6qmaDfA9meoiipVGp5eTmTyYSziU73faFECj03eBJ4lQryx0+mPSSLEP6m9wzow7IswzAYhiG+/78GXBvzkE/YIrhceFwt0/+vxCdTbh6ZX5lZNv+vTHyfMMsHn1uLj5DA/x/TLhCC1HXsdQAAAABJRU5ErkJggg==;imageBorder=#CC0000;strokeWidth=2;" vertex="1" parent="1">
          <mxGeometry x="410" y="352.55999999999995" width="34" height="48.88" as="geometry" />
        </mxCell>
        <mxCell id="sGhclLiKgmVHKod2IJ2O-21" value="" style="shape=image;verticalLabelPosition=bottom;labelBackgroundColor=default;verticalAlign=top;aspect=fixed;imageAspect=0;image=data:image/png,iVBORw0KGgoAAAANSUhEUgAAAEIAAABeCAIAAAAYIlVfAAAACXBIWXMAAA7EAAAOxAGVKw4bAAATOElEQVR4nO1b2XPT1veXtVteZFvxFjvOZtPgBAgMhU5hCoV2pi/t9KnDv9iZPtCHzvQBOtMyQ2low5AQyOLYsRPHtrzJsmXt0u/hNKpxAnEg5ce3w3kAR/aVzufec8/yuUcu27aR/31B/78VOB3B4T/btg3DUFVV0zTLspyvXS4XQRA0TRME4XK53qVmYCaapimKYhjGoNWgKEqSJE3TGIaBVv/AEAShUChUq1VFUZwBBEFwHJdOp6PRKIZh7xIGgiCWZdXr9a2trXa7bRiGc52m6UQiMTMzEwgE4MrfMEzTLBQKP/zww2+//SZJEk3TCILYtu3xeM6fP//dd99xHPfuYZimub6+/v3336+vr8uy7HK5bNvWNM3r9d6+ffvOnTssyw6vhq7rmqaFQqFPP/10bm4Ox3HbtgmCiEajk5OTOI6/G9UHjQfDsNnZ2W+//bbRaMBqmKaZz+e3t7fhs/NLfHA8iqKhUOjy5cvXr1+nKAo52BsMw6AoClAVRdE0DUEQkiTdbjeO48fuGcMwZFlWVRVBEIIg3G73q3YaTDZMPNw8Ho+zLAt7Azbw48eP+/0+QRBwZRgGKE2SJMuykUgE7Mq5u23bkiRVq1VBEGzbhvUNhULxeNztdqPo0R7PsixFUXieb7fbpmkahmFZFsuyifGE3+9HseFRpmk2Go1SqUSS5NTUVDAYpGna0QTmES4OPXFUU9E0bWdnZ3193eVyRSIRFEXL5fLW1tb8/Hw6nfZ4PIdn17ZtVVWLxWKpVMIwzOv16rreaDQKhUJX7GazWa/PO6iNbdv9fn99fX1paSkcDodCoWAwePieg4twAhi2bZum2W6319bW6vX64uLiwsIChmG6rt+/f7/dbnu93lQqRZLk0CjDMFqt1rNnzzAMu3r1ajgcdrlc+/v79+/fX322GuJCKSo1uOaWZTWbzbW1tSdPnszPzw+6pmNlpPBnmubOzk6xWGQYZnx83OPxuN3umZkZn8/39OnTx48f1+v1wWgDIknSxsZGvV4fGxvjOI4kSYIgQqHQzMyMYRjFYlGW5cF57ff7xWKxUCj0er3RAZwAhqqqW1tbe3t7JElSFIWiKIqiXq83EAhIklQoFJrN5tDkwWZtt9vFYnFnZ6fdbmuaBkqjKApby8EAS9dsNnu9nt/vDwQCQ2t7rBxvVKZpiqJYKBTq9TqGYRiGgUGTJOn1emFTiqJoGMbgs53wz/P83t6eqqpXrlyZmJiQJKnRaFAUFQ6HwRkiB2GuUqngOB4Oh/f390+aMYwEo9vtNptNVVVhIkFLFEUpinK5XLIsy7I86MVBaJpOJpOpVOrBgwc//vhjqVSam5sjSVKW5VQqNT4+DrBN0+z1eoVCodPphEIhv9//BjFqJBiSJIEdu1wuZ55cLhekNIZh6Lp+eG+QJDk5OXnjxo1qtfrHH39Uq9W//vorkUhcvnw5kUiwLAsRVpblSqXSbrdZlg2Hw8Vi8Q2St+NhWJZlGIZpmmDKQ88AP2ZZ1mEn6HK5aJqenp6+evWqLMv5fL5UKkmSFI1Gm81mLBYjCMI0TUEQeJ4PBoPpdBpBkFeFoLeF4RoQ5OVkAbbp4BINimmarVbryZMn/X7/66+/7vf7S0tLS0tLd+/elSQJx/FsNgswcBxPJpMcxwmCMHhz+HeUxTkeBoqiNE2DHQ9NOfw5uO8Hv2q328vLy+vr6/Pz89euXSMI4sqVK7/88stPP/20srIyOzs7NjaG43in04GsW9M0VVV1XYd4r2marus4jo+Skh4PA8Mwn8/n9XoRBAH7QQ5sSVEUy7LcbvfhfETX9VarVS6XWZbNZDKwE2iadrvdgUDg/v37tVptf3/ftu1isWjbNripbre7urq6t7en6/qff/6padrk5GQgEDgWyagwotFopVJxNonL5dJ1XZIkl8sVCAS8Xi+O46ZpQtVFEIRhGIqiKIri9/t9Pp/jo6PR6OLiYqlUsiwLwzCPxzMxMaFpGiSLuq5DDophmNvthhg1Spl9DAzQmGGYM2fO8DyvqqqqqpZluVyuXq8nCALDMKlUiuM4FEUFQdja2ur1eqlUKhwOEwSB43i/3+/1epZlARIURRmGiUQitm1zHBeJRBKJhOOsm81mqVTyeDwcx01NTSUSCUiu3xYGchDIMplMuVyGwDw2NoZhGM/zvV4vkUhkMplgMGhZVq1W+/XXX3mev3Hjhs/n8/l8HMcVCoV8Ps9xnN/vR1FUkiSe5ymKikajHMexLAvzDVFfFEVwGLDmh7fcG8L4u7bC8UQi8dFHH62vr5dKJSgY8vm82+1eWFiYn5/3+XxQx/d6vW63qygKiqKRSOTixYuQ7dE0nUqlcBxvtVq5XM7n8509exaAwYNM0+R5fm1trVgsSpJULpeXl5cpipqamvL7/W8LwwHj8XguXLjg8Xgqlcrm5iZUJrdv306n01BJkiSZTqfv3LkjSRLUOhRFTU9Pf/PNNxsbG5VKpVqtoiiK43gqlcpkMhzHDUZry7JUVSUI4tKlS+fPnwfSQJZlCKynsMUdJCzLzs/PT09PO9Wfx+NxKhgURd1u9+zsrG3bjpfEcTwWi7EsK0mSYRhOLel2u4c0IwhiYmIiGo06+wR+TJLk6Thc56YYhjEMQ9M0+NxBw4WM1cmyHN/icrlwHPd6vQzDgGOA7Bh5ORuA/TBY6DkyIhs4qlEhB14LLGFQ0aEPg5+d/MWxn5OSlCPmVyfIJY9U9KRK/Euc3X+E/PwA432SDzDeJ/mPwDiBw4VqFnJ1BEEwDIMc9jU+1IkSMNYJ8IOBBUTXdcg7IGEhCALoi9OMG6ANVEKtVqvf79u2zTDM2NgYcEpH5qGgn2VZlmXJstxut3VdD4VCQ2WQaZqyLDebzUajoSgKhmHALbAsSxAEMlqoGXU1VFXd3NxcW1tTVRUy00ajQZLkuXPnMpnMkRyuZVn9fp/n+VqtVigUNjY2IJu8dOmSA0PX9Xq9nsvloCYDtluSpEQicf369bNnz9I0fTowoF6t1+vPnz8XRTGbzU5OTmIYls/nHzx40Gw2URQFNvrwQFmWgU7XNE2SJFVRVUVFDtIRy7J6vV6lUtE07cyZM+FwGEjRBw8e/P7776IokiSZyWQgT3tbGAiCGIaRz+dzuVwsFovFYtFoFEVRXddJknzx4gXHcUDWD6WiQJBOT0+Pj4/n8/nDpK1lWYIg5HK5TqcDlSCGYTRN7+/vr6ysrK6uZrNZYOWOhXG8p7JtW1GU7e3t/f19OJqB3Nbv97MsK4rizs5Oq9U6zBpCvRqLxZLJZCgUOnwoAXeuVqu5XK5Wq5mmCcjD4bDH4+l0OvV6XVXVUbLJ42FYltXtdnd2dprNJvgZSLah3rAsq9VqiaKo6/qxtxrCAEdK4CdgN4NAPg/uYcS7HW9UhmF0Oh2Hw3VmFKoLFEUVRQGe4UQw4A7RaPTzzz+XZRnMEsgRURThGNVxVqcAAxwiVHxDjhw+v4rDfb3AWLfbzTCMYzZwHlQsFjudTjqdzmQyXq93FE810t6AqHckS4sgCESGt2/asG270+lsbm5WKpWZmZlbt26l0+lR9jcyuBoYhpEkCbXv0JS/ioF8PYd7rAyNArq6UChwHHft2rWPP/6YZdmh50ItDXoOOgx88GuKooC8GRwJ1x0Od/CIyGGTcBx/MybcEdM0a7VasVgkCOLChQvz8/NwVniYisZxHPQZnG7U0Qk8g8PSDsLw+Xx+vx/DsEEOFygZy7KOZDpGF0ioarVaLpfTdf3MmTMXLlwIh8OyLHe73cPGbB3IS10kzidd14Escw7pHBgsy0ajUYZhgO62D5pSJElCUTQYDPp8PuBwZVmWJGmof+b1GDRNa7VaGxsbzWZzYmLi7NmzHMeZplmtViuVylDEBMySJPX7/UGEw57qSBLA7XbPzc3xPA/cvWmaLpdLkiRBECiKisfjwWAQwzBJknK5XK/Xm5iYiMViTuMJzJw1IM7jDcNoNBpra2u1Wg1O2AiC6PV6oiju7u4CR3oKVPTfP8LxdDpdKpUURWk0GsDh7u/vdzqdqamphYWFUCik6/rOzs7du3er1eqXX3752WefURQFXQqSJNXr9Xa73RE6tVqN5/lAMAB2KAjCkydPfv75593dXSDBgMA1TTMajX7xxRdvkqgfOQZ2fzweX1xcXFlZefbsGZwP5fP5RCJx/vz5ubk5j8djmqbH44nH4ziOQ1SGk6S1tbWNjY29vT1YzD//+rPG19Lp9MLCQjQahVmv1WqCIHQ6HYeqg1Yjv98/Yh/XSBku2FUmkyEIolaraZqmaVoikYjFYkAVg5uKRCI3b95UFCUajXo8HqBDE4kE0LuQHcEps3PiGgqFPvnkk2QyKcvy4MThOB6NRmdmZiBROAUYIBiGBYNBhmESiUSn07Ftm2VZp2YC5hN4cgc8giAej2d2dnZ2dnaIR0QOVj4QCCwuLl68ePHI6RtRt5FgDNKbQLNGo9Ghx7yGHRz6avRAeaKQ+ubNXv8Sjflm8h9hRj7AeJ/kA4z3ST7AeJ/kxHHj8Knf6Y5yKjOn/2yU+5+Aw4VyAk7vEQShKMrv9zMM85qCCfLzfr/vjKJp2ufzvWqUZVmSJLXbbShjGIYZRb1RYSAIous6z/PFYrHX68GxqqZpHo9ncnIyGo0eyU9CSQQEbq/XoygKrng8nunp6Xg8PpS9Orzes2fPfD7f5cuX3W73iKsxEjNiWZYoihsbG1tbW/1+n2EYn88ny/LKysqTJ08gAz88EEqi5eXllZUVSZIYhvF6vZqmvXjxYnV11Wk7d8SyrHa7vbq6+ujRo1wuN5jzHisjrYZpmuVy+fnz5wRBXLx4MZ1OA7G5vr7+8OFDiqIYhhliYmzb7vf7uVzu4cOHgUDg5s2bMzMzGIZBk/Ty8rLf7/d4PH6/36kxFEUpl8ubm5u7u7vQ4jM6jJE8la7r+Xx+b2+PYZhQKERRFLxJwLJsuVx+8eJFo9EY4nBhAbe3t6vVKsdxyWQSirtwOMxxXK1W29zchAYlB7YoikDakiR50ubPkYxKluVcLlcul1EUBVoFmE8wEqjdhjhcwzBEUdzf39d1HZrG/n4eirrdbiCFBUEA8LArYC4ikYjTRnaaMAzDgOZMWZaBhwZ+DUh8FEX7/X6/3x9aDWh7hQILKjjHgULvW6fTgVFAdhQKhUql8mYt0SPBgHbibrcLxP1gPQSu5vAbUcjBKw9Azwz5VgzDYPoVRTFNU1XVarW6u7sLzDRUvyeFMVIfLjRhIq+gooHIOAzDYX4PN+sA/QE/kGW5VqvhOD4xMQF810kxICNucXtAXvXtkdcdSurIqAIr1m63FUVJJpNTU1OjnI8dKcfDAOM5spMItIRDj8M1N47jMGqIqATY4Cp6vV673SZJEjrxdF2HN26giRQ+jwJjpAZWhwgbUghsiSAIOMYeHAXHUfBOwKAq9kEzOEmSuq4Xi8VareZ2uy3LKpfLoiiWSiUAlsvlKIqKRCJer/fY3XI8DBzHg8FgIBDY3d2F6XGOyfv9vmVZXq/X6/XCxoUhg/w8JCAwCiYCum6DwSBFUYIgbGxs8DwPi6Moyu7u7t7eXrlcBhd8/fp1MLa3hQEBe3Z2lud56CUAdWVZhr7sWCwWCARwHFcUpdVqaZrGsqzb7WZZNh6PwxsNqqrCiTO85gDJWDKZTKfT6XTayTsEQXj48OHS0tLk5ORXX32VzWYjkcgom34kt0BR1JkzZ6rVqqqqcPiLomiz2RRFMRKJZDKZUChk23a9Xn/06FG73QZGlGXZdDoN71DyPA+kbbvdFgQhHA7PzMxAH24ymXT6LeC1L0hSEolEPB4fcdOPRLfhOD4zM9NsNsvlcqlUQhAEjvdJkrx06VI2m2VZFkEQSZKKxSLP8+Pj44Zh+P1+4OGr1erm5qZhGCiKlkol27az2Wwmk2EYxlER8sJSqSQIAoZhsiwXCgWv1xuPx6E9/m1hgE0Hg8FsNutyuTqdzvb2Noqi3W53bm5ufn4+mUzSNG0YRiAQmJ+fn5iYgCskSY6Pj1+/fh3Y662tLQRBut1uKpU6f/48vL/hwIAgKwiCz+fLZrMkSUqS1Gq1QqHQ4f6HN4GBHLzWODk5GQ6HRVGE2AzW7/SQYxgGVD44U9iyJElOT0/HYjFBEI4c5Qj04YbD4aGLp0xFIwiCoii8KgcO9HC4APMbKj6BjYezjiNHDc7U0LGjE/JPAcagQk5S6FwfKrKPJJ4PjzryEW9DCp84gXkzhvzf5q1fggEhVlVVWZbBBqC0GPHNnNMVh8dwUhJwynD4OJTFvQQDGpyKxeLq6iqYqfMqTSAQeMuT7zcQ6FuARjFQHd4XB4c2+MuXuhQgqN27d+/p06dwhkTTdCaTuXXrltfrfYNq5i3FMq1CoXDv3r1isQhnbhBeFEVJJBKDruKf2pLjuHPnzqEo2uv1nO0LZfeRvuXdCIqi4HadK8B0QZbgXPyblbBtW1XVbrc7+FooJOE0Tfv9/tEpo9MSyFD6/b4oioc7DoBkcuiYf2A4HwbvNegx3yUGR5NX1WSOSi/B+F+X/wij/gHG+yT/Bz4ZjexkPPMQAAAAAElFTkSuQmCC;imageBorder=#009900;strokeWidth=2;" vertex="1" parent="1">
          <mxGeometry x="430" y="370.12" width="36" height="51.28" as="geometry" />
        </mxCell>
        <mxCell id="sGhclLiKgmVHKod2IJ2O-34" value="" style="shape=image;html=1;verticalAlign=top;verticalLabelPosition=bottom;labelBackgroundColor=#ffffff;imageAspect=0;aspect=fixed;image=https://cdn4.iconfinder.com/data/icons/game-of-thrones-4/64/game_of_thrones_game_thrones_series_sword_weapon_lightbringer_fire-128.png;sketch=0;fontFamily=Times New Roman;strokeWidth=2;fillColor=#232F3D;" vertex="1" parent="1">
          <mxGeometry x="535.25" y="313.4" width="108" height="108" as="geometry" />
        </mxCell>
        <mxCell id="sGhclLiKgmVHKod2IJ2O-36" value="Member" style="text;html=1;strokeColor=none;fillColor=none;align=center;verticalAlign=middle;whiteSpace=wrap;rounded=0;fontStyle=1;fontSize=15;fontFamily=Times New Roman;fontColor=#009900;" vertex="1" parent="1">
          <mxGeometry x="710" y="322" width="60" height="30" as="geometry" />
        </mxCell>
        <mxCell id="sGhclLiKgmVHKod2IJ2O-37" value="&lt;font color=&quot;#B90F22&quot;&gt;Non-Member&lt;/font&gt;" style="text;html=1;strokeColor=none;fillColor=none;align=center;verticalAlign=middle;whiteSpace=wrap;rounded=0;fontColor=#CC0000;fontStyle=1;fontSize=15;fontFamily=Times New Roman;" vertex="1" parent="1">
          <mxGeometry x="710" y="391.4" width="60" height="30" as="geometry" />
        </mxCell>
        <mxCell id="sGhclLiKgmVHKod2IJ2O-41" value="" style="endArrow=classic;html=1;rounded=0;fontFamily=Times New Roman;exitX=1;exitY=0.5;exitDx=0;exitDy=0;" edge="1" parent="1" source="sGhclLiKgmVHKod2IJ2O-13">
          <mxGeometry width="50" height="50" relative="1" as="geometry">
            <mxPoint x="660" y="390" as="sourcePoint" />
            <mxPoint x="710" y="340" as="targetPoint" />
          </mxGeometry>
        </mxCell>
        <mxCell id="sGhclLiKgmVHKod2IJ2O-42" value="" style="endArrow=classic;html=1;rounded=0;fontFamily=Times New Roman;exitX=1;exitY=0.5;exitDx=0;exitDy=0;entryX=0;entryY=0.25;entryDx=0;entryDy=0;" edge="1" parent="1" source="sGhclLiKgmVHKod2IJ2O-13" target="sGhclLiKgmVHKod2IJ2O-37">
          <mxGeometry width="50" height="50" relative="1" as="geometry">
            <mxPoint x="660" y="460.7" as="sourcePoint" />
            <mxPoint x="710" y="410.7" as="targetPoint" />
          </mxGeometry>
        </mxCell>
      </root>
    </mxGraphModel>
  </diagram>
</mxfile>
